<svg width="364" height="347" viewBox="0 0 364 347" fill="none" xmlns="http://www.w3.org/2000/svg">
<rect opacity="0.25" width="364" height="347" rx="173.5" fill="#5DA6EA"/>
<path d="M194 122H66C63.2386 122 61 124.239 61 127V182C61 184.761 63.2386 187 66 187H194C196.761 187 199 184.761 199 182V127C199 124.239 196.761 122 194 122Z" fill="#E6E6E6"/>
<g filter="url(#filter0_d_2889_6854)">
<path opacity="0.3" d="M244.5 296C279.018 296 307 292.866 307 289C307 285.134 279.018 282 244.5 282C209.982 282 182 285.134 182 289C182 292.866 209.982 296 244.5 296Z" fill="white"/>
<path opacity="0.1" d="M259.81 126.547H248.698V137.659H259.81V126.547Z" fill="#6C63FF"/>
<path opacity="0.1" d="M259.81 153.953H248.698V165.065H259.81V153.953Z" fill="#6C63FF"/>
<path opacity="0.1" d="M259.81 181.359H248.698V192.471H259.81V181.359Z" fill="#6C63FF"/>
<path opacity="0.1" d="M259.81 208.77H248.698V219.881H259.81V208.77Z" fill="#6C63FF"/>
<path d="M283.124 279.68L282.659 285.216L284.218 284.904L283.984 278.898L283.124 279.68Z" fill="#1D2366"/>
<path d="M247.557 253.394C245.677 258.747 246.209 265.971 246.631 269.48C246.787 270.777 246.932 271.567 246.932 271.567C246.932 271.567 244.122 277.966 243.888 278.209C243.654 278.451 235.62 283.354 235.62 283.354L230.006 286.633C230.006 286.633 224.309 284.136 227.04 283.276C227.598 283.052 228.101 282.71 228.513 282.272C231.248 279.674 234.683 273.215 234.683 273.215C234.683 273.215 234.917 269.937 235.777 268.378C236.636 266.819 236.324 250.437 236.324 250.437L236.39 223.731V220.25L247.076 220.328C247.144 221.51 247.298 222.685 247.537 223.845C247.921 225.846 248.418 227.823 249.026 229.768C250.909 235.859 250.128 246.061 247.557 253.394Z" fill="#FFB0B1"/>
<path opacity="0.1" d="M246.932 271.563C246.932 271.563 244.122 277.963 243.888 278.205C243.654 278.447 235.62 283.351 235.62 283.351L230.006 286.629C230.006 286.629 224.309 284.132 227.04 283.273C227.598 283.049 228.101 282.706 228.513 282.269L228.756 283.976L230.627 283.898L246.646 269.484C246.787 270.774 246.932 271.563 246.932 271.563Z" fill="black"/>
<path d="M246.737 269.848L230.628 284.359L228.756 284.437L228.365 281.702C228.365 281.702 225.091 285.914 217.816 285.679C217.816 285.679 213.448 288.567 219.922 288.723C226.396 288.879 234.664 288.489 234.664 288.489C234.664 288.489 240.438 279.502 245.272 280.674V287.461H246.756V280.612C247.447 280.147 248.036 279.548 248.488 278.849C248.941 278.151 249.248 277.368 249.39 276.548C249.518 275.704 249.427 274.84 249.126 274.041C248.824 273.242 248.321 272.534 247.667 271.985C247.374 271.711 247.141 271.38 246.981 271.012C246.821 270.645 246.738 270.248 246.737 269.848Z" fill="#1D2366"/>
<path d="M284.608 261.738C283.569 265.45 284.136 267.54 284.847 268.662V268.685C285.759 270.07 286.393 271.618 286.714 273.245L286.777 273.596L279.447 284.282L275.469 285.845C275.469 285.845 269.073 283.661 270.242 283.036C270.535 282.884 270.992 282.071 271.515 280.95C273.078 277.57 275.235 271.334 275.235 271.334V271.283C275.462 268.708 275.821 266.141 276.22 263.586C276.935 258.987 275.622 247.7 275.622 247.7C275.622 247.7 275.153 233.974 274.137 230.852C273.678 229.265 273.374 227.637 273.227 225.992C273.016 224.038 272.969 222.428 272.969 222.428C272.969 222.428 277.181 216.568 284.901 222.897C285.519 223.402 286.062 223.991 286.515 224.647C291.848 232.235 287.554 248.95 287.554 248.95C287.554 248.95 286.48 255.03 284.608 261.738Z" fill="#FFB0B1"/>
<path opacity="0.1" d="M286.788 273.599L279.459 284.285L275.481 285.848C275.481 285.848 269.085 283.664 270.253 283.039C270.546 282.886 271.004 282.073 271.527 280.952C274.235 280.929 275.637 283.507 275.637 283.507L279.068 282.96C279.068 282.96 283.592 274.068 284.608 273.525C285.624 272.982 284.765 269.465 284.765 269.465V268.57C284.792 268.602 284.815 268.637 284.847 268.668V268.691C285.759 270.076 286.393 271.625 286.714 273.251L286.788 273.599Z" fill="black"/>
<path d="M275.872 283.734C275.872 283.734 273.919 280.147 270.176 281.472C270.176 281.472 268.07 285.77 265.964 286.465C263.858 287.161 264.561 289.505 269.32 288.649C274.079 287.793 281.253 287.086 281.253 287.086L281.565 282.714L286.402 276.553C286.402 276.553 289.286 273.939 284.996 268.793V269.688C284.996 269.688 285.855 273.204 284.839 273.747C283.823 274.29 279.315 283.187 279.315 283.187L275.872 283.734Z" fill="#1D2366"/>
<path opacity="0.1" d="M247.088 220.32C247.156 221.502 247.31 222.677 247.549 223.837C243.15 223.192 239.067 223.512 236.391 223.723V220.242L247.088 220.32Z" fill="black"/>
<path opacity="0.1" d="M286.949 225.62C286.949 225.62 280.697 225.925 273.242 225.988C273.031 224.034 272.984 222.424 272.984 222.424C272.984 222.424 277.196 216.564 284.917 222.893C285.534 223.398 286.077 223.987 286.53 224.644C286.652 224.977 286.791 225.303 286.949 225.62Z" fill="black"/>
<path d="M286.949 224.919C286.949 224.919 259.568 226.244 251.222 223.903C242.876 221.563 234.605 223.591 233.359 223.048C232.112 222.505 233.124 213.999 234.218 211.893C235.312 209.787 241.313 188.489 241.313 188.489L247.088 158.38L253.172 156.704L253.601 156.583L264.202 153.661L271.969 151.516C271.969 151.516 287.414 211.815 286.089 216.261C285.608 217.964 285.531 219.755 285.863 221.493C286.065 222.679 286.431 223.833 286.949 224.919Z" fill="#1D2366"/>
<path d="M226.958 137.789C226.958 137.789 221.488 143.65 225.63 146.916C229.771 150.183 232.495 147.229 232.495 147.229L226.958 137.789Z" fill="#C7DAF5"/>
<path opacity="0.1" d="M226.958 137.789C226.958 137.789 221.488 143.65 225.63 146.916C229.771 150.183 232.495 147.229 232.495 147.229L226.958 137.789Z" fill="black"/>
<path d="M271.152 99.2532C271.152 99.2532 270.511 99.8627 269.546 100.761C268.171 102.047 266.135 103.926 264.33 105.501C261.83 107.677 259.767 109.275 260.505 107.911C261.244 106.548 261.103 104.172 260.736 101.949C260.708 101.801 260.685 101.652 260.658 101.508C260.353 99.8749 259.95 98.2622 259.45 96.6784C259.45 96.6784 263.49 91.4584 265.725 89.3994C266.557 88.6179 267.139 88.2975 267.175 88.8406C267.214 89.5713 267.761 91.1849 268.441 92.8962C268.46 92.951 268.48 93.0017 268.503 93.0564C268.956 94.2286 269.468 95.432 269.917 96.4713C270.605 98.0654 271.152 99.2532 271.152 99.2532Z" fill="#FFB0B1"/>
<path opacity="0.1" d="M268.503 93.0597C268.123 95.1017 267.202 97.0043 265.836 98.5686C264.47 100.133 262.708 101.302 260.736 101.952C260.425 100.169 259.996 98.4079 259.45 96.6816C259.45 96.6816 267.057 86.8551 267.175 88.8439C267.202 89.5979 267.796 91.2702 268.503 93.0597Z" fill="black"/>
<path opacity="0.1" d="M259.977 104.578L260.962 103.191C260.962 103.191 261.615 107.169 264.014 105.415C266.413 103.66 266.53 118.617 266.53 118.617L263.955 157.114L245.349 156L245.877 137.399L247.983 128.021L253.191 114.389L256.289 109.884L259.977 104.578Z" fill="black"/>
<path d="M266.53 118.855L264.186 153.664L263.94 157.352L253.566 156.731L253.176 156.708L245.361 156.239L245.889 137.633L247.995 128.256L253.203 114.624L256.301 110.119L259.99 104.793L260.974 103.41C260.974 103.41 261.627 107.388 264.026 105.633L264.077 105.598C266.421 104.113 266.53 118.855 266.53 118.855Z" fill="#1D2366"/>
<path d="M248.256 124.996C248.256 124.996 247.322 126.95 245.447 126.633C243.571 126.317 243.575 133.666 243.575 133.666C243.575 133.666 242.329 134.838 241.469 133.822C240.61 132.806 238.344 136.241 238.344 136.241L224.145 136.866C224.145 136.866 230.463 139.753 229.224 148.49C229.224 148.49 250.675 147.161 251.378 145.134C252.081 143.106 248.256 124.996 248.256 124.996Z" fill="white"/>
<path opacity="0.03" d="M248.256 124.996C248.256 124.996 247.322 126.95 245.447 126.633C243.571 126.317 243.575 133.666 243.575 133.666C243.575 133.666 242.329 134.838 241.469 133.822C240.61 132.806 238.344 136.241 238.344 136.241L224.145 136.866C224.145 136.866 230.463 139.753 229.224 148.49C229.224 148.49 250.675 147.161 251.378 145.134C252.081 143.106 248.256 124.996 248.256 124.996Z" fill="black"/>
<path d="M206.993 141.457L210.736 144.653L241.548 151.127L237.726 147.228L206.993 141.457Z" fill="white"/>
<path d="M260.036 105.809C259.525 106.591 258.059 110.592 256.836 114.085C255.817 116.996 254.965 119.555 254.965 119.555C254.965 119.555 252.976 132.503 251.96 134.843C250.944 137.184 251.495 146.311 251.495 146.311L247.709 168.851C247.709 168.851 245.994 180.475 243.345 187.418C240.731 194.252 237.82 197.456 237.73 197.557C238.903 195.971 245.291 164.737 245.291 164.737L247.401 125.345C247.401 125.345 247.709 121.602 248.022 118.402C248.334 115.202 254.664 110.834 254.664 110.834L260.767 102.156C261.38 102.977 260.97 104.407 260.036 105.809Z" fill="white"/>
<path d="M244.122 156.434C244.122 156.434 235.136 156.043 230.783 150.815C226.431 145.588 240.844 148.729 240.844 148.729L244.591 149.588L244.122 156.434Z" fill="#FFB0B1"/>
<path opacity="0.1" d="M286.089 216.262C285.608 217.965 285.53 219.756 285.862 221.494C276.059 222.189 265.572 219.54 265.572 219.54C263.619 221.338 258.473 223.987 258.473 223.987L255.668 189.213C253.874 184.524 253.171 159.96 253.171 159.96C253.171 159.96 253.331 158.675 253.562 156.748C253.562 156.702 253.562 156.651 253.581 156.604C254.281 151.224 255.668 141.124 256.347 139.76C257.285 137.885 253.464 132.895 253.464 132.895L255.203 118.068L255.414 116.278C259.079 114.641 261.888 109.413 261.888 109.413L264.044 105.635C266.389 104.131 266.51 118.873 266.51 118.873L264.166 153.681L271.933 151.536C271.933 151.536 287.413 211.816 286.089 216.262Z" fill="black"/>
<path d="M296.15 218.665C285.464 223.971 266.041 219.056 266.041 219.056C264.088 220.853 258.942 223.502 258.942 223.502L256.133 188.728C254.343 184.04 253.64 159.476 253.64 159.476C253.64 159.476 255.898 141.147 256.836 139.276C257.11 138.729 256.977 137.916 256.653 137.041C255.058 132.875 254.472 128.391 254.941 123.956L255.691 117.583L255.898 115.797C259.567 114.156 262.377 108.929 262.377 108.929L264.33 105.506L267.925 99.1999L269.628 96.2148L269.917 96.4766L272.125 98.4771C272.125 98.4771 273.063 99.2585 274.469 100.431C277.528 103.009 282.815 107.549 285.542 110.327C287.941 112.773 288.699 122.287 288.918 129.449C289.062 134.165 288.976 137.861 288.976 137.861C286.558 141.843 292.884 173.807 292.884 173.807C294.357 179.984 296.15 218.665 296.15 218.665Z" fill="white"/>
<path opacity="0.03" d="M275.637 108.852C275.637 108.852 268.304 122.812 269.155 128.118C270.007 133.424 272.43 139.429 271.261 140.832C270.86 141.363 270.341 141.795 269.745 142.092C269.15 142.39 268.493 142.545 267.827 142.547C266.655 142.625 263.529 144.809 263.529 145.044C263.529 145.278 260.642 145.278 258.059 146.372C255.476 147.466 251.663 148.087 251.663 148.087C251.663 148.087 244.24 147.853 243.548 148.556C242.856 149.26 242.145 153.468 243.626 156.824C245.107 160.18 246.752 162.685 247.994 163.142C249.237 163.599 257.121 160.958 263.517 160.332C269.913 159.707 276.856 154.64 276.856 154.64C276.856 154.64 284.503 151.905 285.843 147.306C287.183 142.707 284.206 117.432 284.206 117.432C284.206 117.432 281.955 105.652 275.637 108.852Z" fill="black"/>
<path opacity="0.03" d="M274.7 107.679C274.7 107.679 267.366 121.643 268.226 126.945C269.085 132.247 271.5 138.256 270.328 139.663C269.928 140.195 269.41 140.627 268.814 140.924C268.219 141.222 267.563 141.377 266.897 141.378C265.725 141.456 262.599 143.64 262.599 143.875C262.599 144.109 259.712 144.109 257.129 145.199C254.547 146.289 250.733 146.915 250.733 146.915C250.733 146.915 243.31 146.68 242.622 147.383C241.934 148.087 241.215 152.299 242.7 155.651C244.185 159.003 245.826 161.512 247.068 161.969C248.311 162.426 256.196 159.785 262.592 159.163C268.988 158.542 275.931 153.467 275.931 153.467C275.931 153.467 283.573 150.732 284.897 146.137C286.222 141.542 283.26 116.259 283.26 116.259C283.26 116.259 281.018 104.483 274.7 107.679Z" fill="black"/>
<path d="M275.407 108.147C275.407 108.147 268.073 122.111 268.933 127.413C269.792 132.715 272.207 138.725 271.039 140.127C270.639 140.661 270.12 141.093 269.524 141.392C268.928 141.69 268.271 141.846 267.604 141.846C266.432 141.925 263.306 144.109 263.306 144.339C263.306 144.57 260.423 144.574 257.836 145.668C255.25 146.762 251.44 147.383 251.44 147.383C251.44 147.383 244.017 147.148 243.325 147.852C242.634 148.555 241.923 152.767 243.403 156.119C244.884 159.472 246.529 161.98 247.772 162.437C249.014 162.894 256.899 160.253 263.295 159.628C269.691 159.003 276.634 153.935 276.634 153.935C276.634 153.935 284.28 151.2 285.62 146.601C286.96 142.003 284.003 116.727 284.003 116.727C284.003 116.727 281.721 104.967 275.407 108.147Z" fill="white"/>
<path opacity="0.1" d="M275.247 145.603C275.247 145.603 269.386 144.43 271.426 146.384C273.465 148.338 273.453 150.049 275.95 149.971C278.447 149.893 275.247 145.603 275.247 145.603Z" fill="black"/>
<path opacity="0.1" d="M285.152 187.633C285.152 187.633 282.502 189.426 287.57 193.56C292.638 197.694 285.152 187.633 285.152 187.633Z" fill="black"/>
<path opacity="0.1" d="M280.096 202.379C280.096 202.613 279.158 210.975 282.667 213.065C286.175 215.155 280.096 202.379 280.096 202.379Z" fill="black"/>
<path d="M224.387 136.848C221.558 136.945 215.448 137.809 218.616 143.72C221.418 148.952 226.126 145.455 228.775 142.802C228.129 140.329 226.558 138.197 224.387 136.848Z" fill="#FFB0B1"/>
<path d="M228.81 142.754L228.927 142.633L228.81 142.754Z" fill="#FFB0B1"/>
<path opacity="0.1" d="M274.469 100.669C271.468 102.72 268.952 104.451 268.46 104.811C267.116 105.807 264.553 111.656 262.9 114.641C261.583 117.044 257.305 117.661 255.691 117.814L255.898 116.028C259.567 114.387 262.377 109.159 262.377 109.159L269.628 96.4453L272.125 98.7154C272.125 98.7154 273.063 99.4968 274.469 100.669Z" fill="black"/>
<path d="M274.469 100.435C271.468 102.486 268.952 104.217 268.46 104.58C267.116 105.572 264.553 111.421 262.9 114.407C261.583 116.809 257.305 117.427 255.691 117.579L255.898 115.794C259.567 114.153 262.377 108.925 262.377 108.925L269.628 96.2109L272.125 98.4732C272.125 98.4732 273.063 99.2468 274.469 100.435Z" fill="#DCE7FF"/>
<path d="M268.694 90.4812C268.696 92.8266 267.985 95.1171 266.655 97.0491C265.084 99.3333 262.747 100.979 260.067 101.687C257.386 102.395 254.541 102.119 252.047 100.909C249.553 99.6993 247.575 97.6353 246.473 95.0918C245.37 92.5483 245.216 89.6939 246.038 87.0465C246.861 84.399 248.604 82.134 250.954 80.6624C253.303 79.1907 256.102 78.61 258.843 79.0255C261.584 79.441 264.085 80.8252 265.892 82.9271C267.7 85.0289 268.694 87.709 268.694 90.4812Z" fill="#FFB0B1"/>
<path opacity="0.1" d="M288.918 129.455C287.331 128.479 286.039 127.091 285.179 125.438C284.526 124.149 284.093 122.66 282.979 121.746C281.975 120.926 280.635 120.726 279.385 120.359C275.274 119.144 271.828 115.393 271.699 111.111C271.637 109.095 272.266 107.083 271.981 105.086C271.818 103.956 271.369 102.887 270.676 101.98C270.331 101.546 269.954 101.14 269.546 100.765C268.999 100.249 268.425 99.749 267.925 99.202C267.61 98.8633 267.335 98.4897 267.104 98.0884C266.919 97.7601 266.768 97.413 266.655 97.053C265.874 94.6618 266.585 91.8253 265.725 89.4067L265.678 89.2739C265.354 88.4143 264.694 87.5547 263.775 87.4883C262.857 87.4219 262.072 88.1838 261.197 88.5237C259.364 89.2348 257.387 88.0236 255.86 86.7889C254.332 85.5543 252.609 84.1438 250.667 84.4173C249.382 84.6009 248.366 85.4761 247.182 85.9294C246.915 86.0328 246.639 86.1126 246.357 86.1677C247.359 83.6691 249.2 81.5974 251.563 80.3086C253.927 79.0197 256.665 78.5942 259.308 79.1051C261.951 79.6159 264.334 81.0313 266.047 83.108C267.76 85.1847 268.696 87.7931 268.695 90.4851C268.696 91.298 268.611 92.1087 268.441 92.9036C268.46 92.9583 268.48 93.0091 268.503 93.0638C268.956 94.236 269.468 95.4394 269.918 96.4787L272.125 98.4791C272.125 98.4791 273.063 99.2606 274.469 100.433C277.529 103.011 282.815 107.552 285.542 110.33C287.941 112.783 288.691 122.293 288.918 129.455Z" fill="black"/>
<path d="M247.045 78.79C247.604 77.653 247.881 76.3792 248.549 75.3009C249.53 73.738 251.241 72.7378 252.999 72.1322C257.59 70.5498 267.292 68.2524 270.191 72.1322C270.761 72.9136 271.234 73.781 272.023 74.3202C272.625 74.7304 273.352 74.9063 274.012 75.2149C275.86 76.0823 277.04 77.9734 277.669 79.9035C278.298 81.8336 278.486 83.9044 278.947 85.8932C279.537 88.4445 280.572 90.8631 281.604 93.2659C282.819 96.1025 284.108 99.0446 286.452 101.049C289.652 103.784 290.359 107.656 293.329 110.657C296.845 114.22 296.732 120.1 294.919 124.769C294.681 125.383 294.411 126.024 294.505 126.676C294.599 127.328 295.083 127.922 295.54 128.442L297.463 130.611C292.915 131.708 287.769 129.333 285.651 125.164C284.999 123.875 284.565 122.39 283.448 121.472C282.447 120.651 281.103 120.456 279.857 120.089C275.747 118.87 272.301 115.115 272.172 110.833C272.109 108.82 272.738 106.808 272.453 104.815C272.294 103.678 271.843 102.601 271.144 101.69C270.07 100.287 268.448 99.3455 267.573 97.7826C266.092 95.1687 267.217 91.7734 266.151 88.9681C265.823 88.1085 265.166 87.2489 264.248 87.1825C263.33 87.1161 262.544 87.878 261.665 88.2179C259.837 88.929 257.86 87.7217 256.332 86.4831C254.804 85.2446 253.081 83.838 251.136 84.1154C249.85 84.2951 248.838 85.1703 247.654 85.6275C246.779 85.9635 245.005 86.2643 244.239 85.5259C242.622 84.0373 246.369 80.1809 247.045 78.79Z" fill="#591D4B"/>
<path opacity="0.1" d="M286.738 123.875C286.081 122.585 285.652 121.101 284.534 120.186C283.534 119.366 282.19 119.167 280.94 118.799C276.833 117.584 273.387 113.83 273.254 109.547C273.192 107.535 273.821 105.519 273.539 103.526C273.376 102.396 272.925 101.327 272.231 100.42C271.152 99.0175 269.531 98.0759 268.659 96.513C267.179 93.9031 268.304 90.5077 267.233 87.6985C266.909 86.8428 266.249 85.9833 265.334 85.9129C264.42 85.8426 263.627 86.6123 262.752 86.9523C260.923 87.6634 258.942 86.4521 257.419 85.2175C255.895 83.9828 254.164 82.5723 252.222 82.8458C250.937 83.0295 249.921 83.9047 248.741 84.3579C247.866 84.6939 246.088 84.9987 245.322 84.2602C243.712 82.6974 247.459 78.8488 248.131 77.4657C248.69 76.3248 248.967 75.055 249.639 73.9766C249.675 73.918 249.714 73.8594 249.753 73.8008C249.25 74.2172 248.816 74.7104 248.467 75.2621C247.799 76.3404 247.522 77.6063 246.963 78.7511C246.287 80.1343 242.54 83.9945 244.154 85.5457C244.935 86.288 246.693 85.9833 247.569 85.6473C248.741 85.1901 249.764 84.3149 251.05 84.1352C253.003 83.8578 254.723 85.2683 256.246 86.5029C257.77 87.7376 259.763 88.9488 261.584 88.2377C262.459 87.8978 263.225 87.132 264.162 87.2023C265.1 87.2726 265.725 88.1283 266.065 88.9879C267.132 91.7932 266.006 95.1885 267.487 97.8024C268.362 99.3379 269.984 100.299 271.058 101.71C271.758 102.621 272.209 103.698 272.367 104.835C272.653 106.828 272.023 108.84 272.086 110.852C272.215 115.15 275.661 118.889 279.771 120.108C281.01 120.476 282.362 120.671 283.362 121.491C284.483 122.41 284.925 123.894 285.566 125.184C287.683 129.353 292.829 131.728 297.377 130.63L296.471 129.607C292.528 129.665 288.539 127.423 286.738 123.875Z" fill="black"/>
<path opacity="0.1" d="M259.802 106.044C259.29 106.825 257.825 110.826 256.602 114.319C255.457 113.874 254.418 111.033 254.418 111.033L260.521 102.352C261.146 103.211 260.736 104.637 259.802 106.044Z" fill="black"/>
<path d="M260.036 105.806C259.524 106.587 258.059 110.588 256.836 114.081C255.691 113.639 254.652 110.795 254.652 110.795L260.755 102.117C261.38 102.973 260.97 104.403 260.036 105.806Z" fill="#DCE7FF"/>
<path d="M224.552 145.724L221.168 135.054C221.128 134.929 221.113 134.797 221.124 134.666C221.135 134.536 221.172 134.408 221.232 134.292C221.292 134.175 221.375 134.072 221.475 133.987C221.576 133.903 221.692 133.839 221.817 133.799C222.069 133.721 222.341 133.745 222.575 133.866C222.81 133.988 222.986 134.197 223.067 134.448L226.451 145.107L226.115 147.338L224.552 145.724Z" fill="#BE8B87"/>
<path opacity="0.1" d="M221.488 134.116C221.741 134.036 222.014 134.059 222.249 134.181C222.485 134.303 222.662 134.512 222.743 134.764L226.126 145.423L225.872 147.095L226.118 147.353L226.454 145.122L223.051 134.464C222.97 134.212 222.794 134.003 222.56 133.882C222.325 133.76 222.053 133.736 221.801 133.815C221.589 133.884 221.406 134.021 221.281 134.206C221.348 134.17 221.417 134.14 221.488 134.116Z" fill="white"/>
<path d="M224.551 145.723L226.45 145.121L226.173 146.95L226.114 147.352L225.559 146.774L224.551 145.723Z" fill="#EFC8C4"/>
<path d="M225.56 146.777C225.593 146.735 225.634 146.7 225.681 146.675C225.708 146.658 225.74 146.648 225.773 146.648C225.805 146.648 225.837 146.658 225.864 146.675C225.891 146.707 225.913 146.743 225.931 146.781C225.957 146.824 225.992 146.86 226.034 146.888C226.076 146.916 226.123 146.934 226.173 146.941L226.114 147.331L225.56 146.777Z" fill="#727A9C"/>
<path d="M221.148 138.844C221.148 138.844 227.935 138.805 226.337 141.692C224.739 144.579 222.242 144.927 222.242 144.927L221.148 138.844Z" fill="#FFB0B1"/>
<path d="M195.974 180.525C195.974 181.63 195.079 182.525 193.974 182.525H65.9126C64.808 182.525 63.9126 181.63 63.9126 180.525V126.699C63.9126 125.595 64.808 124.699 65.9126 124.699H193.974C195.079 124.699 195.974 125.595 195.974 126.699V180.525Z" fill="white"/>
<path d="M87 125.5C87 135.717 78.7173 144 68.5 144C58.2827 144 50 135.717 50 125.5C50 115.283 58.2827 107 68.5 107C78.7173 107 87 115.283 87 125.5Z" fill="#E6E6E6"/>
<path d="M84 125.5C84 134.06 77.0604 141 68.5 141C59.9396 141 53 134.06 53 125.5C53 116.94 59.9396 110 68.5 110C77.0604 110 84 116.94 84 125.5Z" fill="white"/>
<path d="M130.045 171.196L107.433 154.243L85.1306 170.964L84.6201 170.282L107.433 153.179L129.937 170.05L152.3 145.555L152.39 145.519L174.948 136.422L175.266 137.212L152.798 146.273L130.045 171.196Z" fill="#3F3D56"/>
<path d="M84.816 173.15C86.2186 173.15 87.3557 172.013 87.3557 170.61C87.3557 169.207 86.2186 168.07 84.816 168.07C83.4134 168.07 82.2764 169.207 82.2764 170.61C82.2764 172.013 83.4134 173.15 84.816 173.15Z" fill="#4CA0FF"/>
<path d="M107.477 156.739C108.88 156.739 110.017 155.602 110.017 154.2C110.017 152.797 108.88 151.66 107.477 151.66C106.075 151.66 104.938 152.797 104.938 154.2C104.938 155.602 106.075 156.739 107.477 156.739Z" fill="#4CA0FF"/>
<path d="M129.944 173.15C131.454 173.15 132.679 172.013 132.679 170.61C132.679 169.207 131.454 168.07 129.944 168.07C128.433 168.07 127.208 169.207 127.208 170.61C127.208 172.013 128.433 173.15 129.944 173.15Z" fill="#4CA0FF"/>
<path d="M152.409 148.532C153.812 148.532 154.949 147.395 154.949 145.993C154.949 144.59 153.812 143.453 152.409 143.453C151.007 143.453 149.87 144.59 149.87 145.993C149.87 147.395 151.007 148.532 152.409 148.532Z" fill="#4CA0FF"/>
<path d="M175.071 139.154C176.474 139.154 177.611 138.016 177.611 136.614C177.611 135.211 176.474 134.074 175.071 134.074C173.669 134.074 172.532 135.211 172.532 136.614C172.532 138.016 173.669 139.154 175.071 139.154Z" fill="#4CA0FF"/>
<path d="M74.5389 115H74.4813C72.191 115 70.1655 116.208 69.0004 117.99C67.8353 116.208 65.8097 115 63.5194 115H63.4619C61.743 115.016 60.1001 115.708 58.8902 116.925C57.6802 118.141 57.0009 119.785 57 121.498C57 123.625 57.9349 126.643 59.7577 129.127C63.2308 133.86 69.0004 138 69.0004 138C69.0004 138 74.7699 133.86 78.2422 129.127C80.0659 126.643 81 123.625 81 121.498C80.9991 119.785 80.3199 118.142 79.1101 116.925C77.9003 115.708 76.2576 115.017 74.5389 115ZM73.7153 129.491C73.4545 129.49 73.2001 129.411 72.9854 129.263C72.7708 129.115 72.606 128.906 72.5126 128.664H71.1433C71.0532 128.663 70.9654 128.634 70.8924 128.582C70.8193 128.529 70.7645 128.455 70.7358 128.37L70.3152 127.107L68.9843 131.742C68.9583 131.831 68.9041 131.909 68.8296 131.965C68.7552 132.021 68.6645 132.051 68.5713 132.051H68.5445C68.4472 132.047 68.3545 132.009 68.2819 131.944C68.2092 131.88 68.1611 131.792 68.1453 131.696L66.7738 123.475L65.7714 128.34C65.7484 128.432 65.695 128.514 65.6197 128.573C65.5445 128.632 65.4517 128.664 65.3561 128.664H63.4273C63.3695 128.666 63.3118 128.657 63.2576 128.636C63.2035 128.616 63.1541 128.585 63.1123 128.545C63.0705 128.505 63.0373 128.457 63.0145 128.404C62.9918 128.351 62.9801 128.294 62.9801 128.236C62.9801 128.179 62.9918 128.122 63.0145 128.069C63.0373 128.015 63.0705 127.968 63.1123 127.928C63.1541 127.888 63.2035 127.857 63.2576 127.836C63.3118 127.816 63.3695 127.807 63.4273 127.809H65.0184L66.4384 121.268C66.4617 121.172 66.518 121.086 66.5976 121.026C66.6773 120.966 66.7753 120.936 66.875 120.94C66.9747 120.944 67.0699 120.983 67.1442 121.049C67.2186 121.115 67.2675 121.205 67.2826 121.304L68.6834 129.69L69.8761 125.543C69.901 125.456 69.9535 125.379 70.0258 125.324C70.0982 125.269 70.1865 125.239 70.2776 125.238H70.286C70.3762 125.238 70.4641 125.266 70.5371 125.319C70.6102 125.371 70.6647 125.446 70.6928 125.531L71.4534 127.811H72.4957C72.5698 127.587 72.7047 127.387 72.8855 127.235C73.0662 127.082 73.2858 126.982 73.52 126.945C73.7542 126.909 73.994 126.938 74.2127 127.029C74.4315 127.12 74.6208 127.269 74.7598 127.461C74.8987 127.652 74.9819 127.878 75.0002 128.113C75.0184 128.349 74.9711 128.585 74.8633 128.795C74.7554 129.006 74.5914 129.182 74.3892 129.306C74.1871 129.429 73.9547 129.494 73.7176 129.494L73.7153 129.491Z" fill="#4CA0FF"/>
</g>
<defs>
<filter id="filter0_d_2889_6854" x="46" y="70" width="265" height="234" filterUnits="userSpaceOnUse" color-interpolation-filters="sRGB">
<feFlood flood-opacity="0" result="BackgroundImageFix"/>
<feColorMatrix in="SourceAlpha" type="matrix" values="0 0 0 0 0 0 0 0 0 0 0 0 0 0 0 0 0 0 127 0" result="hardAlpha"/>
<feOffset dy="4"/>
<feGaussianBlur stdDeviation="2"/>
<feComposite in2="hardAlpha" operator="out"/>
<feColorMatrix type="matrix" values="0 0 0 0 0 0 0 0 0 0 0 0 0 0 0 0 0 0 0.25 0"/>
<feBlend mode="normal" in2="BackgroundImageFix" result="effect1_dropShadow_2889_6854"/>
<feBlend mode="normal" in="SourceGraphic" in2="effect1_dropShadow_2889_6854" result="shape"/>
</filter>
</defs>
</svg>
