<svg width="232" height="221" viewBox="0 0 232 221" fill="none" xmlns="http://www.w3.org/2000/svg">
<rect opacity="0.25" width="232" height="221" rx="110.5" fill="#5DA6EA"/>
<g filter="url(#filter0_d_2889_7120)">
<path opacity="0.3" d="M116.323 169.002C152.4 169.002 181.646 165.723 181.646 161.679C181.646 157.634 152.4 154.355 116.323 154.355C80.2462 154.355 51 157.634 51 161.679C51 165.723 80.2462 169.002 116.323 169.002Z" fill="white"/>
<path d="M138.517 78.1489V90.4977C138.517 90.6118 138.472 90.7211 138.391 90.8018C138.311 90.8825 138.202 90.9279 138.088 90.9282H137.783V155.258C137.783 157.038 137.078 158.745 135.823 160.004C134.569 161.262 132.868 161.97 131.093 161.97H91.0351C90.1568 161.97 89.287 161.796 88.4756 161.459C87.6642 161.121 86.9269 160.627 86.3059 160.003C85.685 159.38 85.1924 158.64 84.8564 157.826C84.5204 157.012 84.3476 156.139 84.3477 155.258V93.1844H84.1266C84.0464 93.1845 83.9694 93.1528 83.9125 93.096C83.8556 93.0393 83.8235 92.9622 83.8231 92.8817V85.8537C83.8231 85.8137 83.8309 85.7741 83.8462 85.7372C83.8614 85.7002 83.8838 85.6666 83.912 85.6383C83.9402 85.6101 83.9736 85.5876 84.0105 85.5723C84.0473 85.557 84.0868 85.5491 84.1266 85.5491H84.3477V82.9019H84.1248C84.0405 82.9016 83.9599 82.8677 83.9005 82.8078C83.8412 82.7479 83.8079 82.6668 83.8081 82.5823V75.6502C83.8083 75.566 83.8418 75.4853 83.9011 75.4257C83.9604 75.3662 84.0408 75.3326 84.1248 75.3324H84.3477V71.7188H84.121C84.0841 71.7188 84.0475 71.7116 84.0134 71.6974C83.9793 71.6832 83.9483 71.6625 83.9222 71.6363C83.896 71.6101 83.8753 71.579 83.8612 71.5447C83.8471 71.5105 83.8399 71.4738 83.8399 71.4367V67.6539C83.8398 67.5789 83.8693 67.5068 83.922 67.4536C83.9747 67.4004 84.0462 67.3703 84.121 67.37H84.3477V59.7103C84.3478 57.9306 85.0524 56.2239 86.3065 54.9655C87.5606 53.7071 89.2615 53.0001 91.0351 53H131.093C132.867 53 134.568 53.7069 135.823 54.9653C137.077 56.2236 137.782 57.9304 137.783 59.7103V77.7183H138.088C138.202 77.7186 138.311 77.7641 138.391 77.8448C138.472 77.9254 138.517 78.0348 138.517 78.1489Z" fill="#3F3D56"/>
<path d="M112.947 56.1406H106.688C106.435 56.1406 106.23 56.3931 106.23 56.7045V57.3705C106.23 57.6819 106.435 57.9344 106.688 57.9344H112.947C113.2 57.9344 113.405 57.6819 113.405 57.3705V56.7045C113.405 56.3931 113.2 56.1406 112.947 56.1406Z" fill="#E6E8EC"/>
<path d="M115.647 57.9344C116.142 57.9344 116.544 57.5328 116.544 57.0375C116.544 56.5422 116.142 56.1406 115.647 56.1406C115.152 56.1406 114.75 56.5422 114.75 57.0375C114.75 57.5328 115.152 57.9344 115.647 57.9344Z" fill="#E6E8EC"/>
<path d="M134.929 60.8606V155.909C134.929 157.042 134.479 158.128 133.679 158.928C132.879 159.729 131.794 160.178 130.663 160.178H92.1106C91.5501 160.179 90.995 160.07 90.477 159.855C89.959 159.641 89.4883 159.327 89.092 158.93C88.6956 158.534 88.3813 158.063 88.1671 157.544C87.9529 157.026 87.843 156.47 87.8438 155.909V60.8606C87.8437 60.2998 87.9541 59.7444 88.1685 59.2262C88.3829 58.7081 88.6972 58.2373 89.0934 57.8407C89.4896 57.4441 89.96 57.1295 90.4777 56.9149C90.9954 56.7003 91.5502 56.5898 92.1106 56.5898H97.8807V57.3309C97.8807 58.2635 98.2508 59.158 98.9097 59.8174C99.5686 60.4769 100.462 60.8474 101.394 60.8474H121.001C121.932 60.8474 122.826 60.4769 123.485 59.8174C124.144 59.158 124.514 58.2635 124.514 57.3309V56.5898H130.663C131.223 56.5897 131.778 56.7 132.296 56.9146C132.813 57.1291 133.284 57.4437 133.68 57.8403C134.076 58.2369 134.391 58.7078 134.605 59.226C134.819 59.7443 134.93 60.2997 134.929 60.8606Z" fill="white"/>
<path d="M118 70H105C103.895 70 103 70.8954 103 72C103 73.1046 103.895 74 105 74H118C119.105 74 120 73.1046 120 72C120 70.8954 119.105 70 118 70Z" fill="#4CA0FF"/>
<path d="M128 78H95C93.8954 78 93 78.8954 93 80C93 81.1046 93.8954 82 95 82H128C129.105 82 130 81.1046 130 80C130 78.8954 129.105 78 128 78Z" fill="#4CA0FF"/>
<path d="M128.5 86H94.5C93.6716 86 93 86.6716 93 87.5C93 88.3284 93.6716 89 94.5 89H128.5C129.328 89 130 88.3284 130 87.5C130 86.6716 129.328 86 128.5 86Z" fill="#4CA0FF"/>
<path d="M100 105H95C92.7909 105 91 106.791 91 109C91 111.209 92.7909 113 95 113H100C102.209 113 104 111.209 104 109C104 106.791 102.209 105 100 105Z" fill="#DADADA"/>
<path d="M115 105H110C107.791 105 106 106.791 106 109C106 111.209 107.791 113 110 113H115C117.209 113 119 111.209 119 109C119 106.791 117.209 105 115 105Z" fill="#DADADA"/>
<path d="M129 105H124C121.791 105 120 106.791 120 109C120 111.209 121.791 113 124 113H129C131.209 113 133 111.209 133 109C133 106.791 131.209 105 129 105Z" fill="#DADADA"/>
<path d="M100 116H95C92.7909 116 91 117.791 91 120C91 122.209 92.7909 124 95 124H100C102.209 124 104 122.209 104 120C104 117.791 102.209 116 100 116Z" fill="#DADADA"/>
<path d="M115 116H110C107.791 116 106 117.791 106 120C106 122.209 107.791 124 110 124H115C117.209 124 119 122.209 119 120C119 117.791 117.209 116 115 116Z" fill="#DADADA"/>
<path d="M130 116H125C122.791 116 121 117.791 121 120C121 122.209 122.791 124 125 124H130C132.209 124 134 122.209 134 120C134 117.791 132.209 116 130 116Z" fill="#4CA0FF"/>
<path d="M100 127H95C92.7909 127 91 128.791 91 131C91 133.209 92.7909 135 95 135H100C102.209 135 104 133.209 104 131C104 128.791 102.209 127 100 127Z" fill="#DADADA"/>
<path d="M115 127H110C107.791 127 106 128.791 106 131C106 133.209 107.791 135 110 135H115C117.209 135 119 133.209 119 131C119 128.791 117.209 127 115 127Z" fill="#DADADA"/>
<path d="M130 127H125C122.791 127 121 128.791 121 131C121 133.209 122.791 135 125 135H130C132.209 135 134 133.209 134 131C134 128.791 132.209 127 130 127Z" fill="#DADADA"/>
<path d="M100 138H95C92.7909 138 91 139.791 91 142C91 144.209 92.7909 146 95 146H100C102.209 146 104 144.209 104 142C104 139.791 102.209 138 100 138Z" fill="#DADADA"/>
<path d="M115 138H110C107.791 138 106 139.791 106 142C106 144.209 107.791 146 110 146H115C117.209 146 119 144.209 119 142C119 139.791 117.209 138 115 138Z" fill="#DADADA"/>
<path d="M130 138H125C122.791 138 121 139.791 121 142C121 144.209 122.791 146 125 146H130C132.209 146 134 144.209 134 142C134 139.791 132.209 138 130 138Z" fill="#DADADA"/>
<path d="M100 149H95C92.7909 149 91 150.791 91 153C91 155.209 92.7909 157 95 157H100C102.209 157 104 155.209 104 153C104 150.791 102.209 149 100 149Z" fill="#DADADA"/>
<path d="M115 149H110C107.791 149 106 150.791 106 153C106 155.209 107.791 157 110 157H115C117.209 157 119 155.209 119 153C119 150.791 117.209 149 115 149Z" fill="#DADADA"/>
<path d="M130 149H125C122.791 149 121 150.791 121 153C121 155.209 122.791 157 125 157H130C132.209 157 134 155.209 134 153C134 150.791 132.209 149 130 149Z" fill="#DADADA"/>
<path d="M189.228 147.235C191.638 148.665 192.402 151.797 190.922 154.177L183.403 166.261C182.909 167.055 181.931 167.401 181.048 167.094L172.52 164.13L138.048 154.748L138.046 154.747L137.934 154.718L137.915 154.712L137.641 154.638L134.361 153.75C134.352 153.702 134.345 153.655 134.34 153.608C134.318 153.382 134.356 153.154 134.45 152.947C134.482 152.873 134.52 152.802 134.565 152.735L134.566 152.734C134.585 152.704 134.606 152.674 134.628 152.645C134.65 152.614 134.674 152.584 134.699 152.555C135.125 152.039 135.883 151.644 136.708 151.345C138.492 150.712 140.409 150.554 142.27 150.888C146.022 151.537 153.997 152.636 154.492 150.334C155.14 147.316 130.15 123.426 130.15 123.426C127.776 120.414 128.417 119.001 128.925 118.463C128.94 118.447 128.955 118.431 128.969 118.417C129.024 118.364 129.083 118.315 129.145 118.271C129.177 118.247 129.211 118.225 129.246 118.205C129.255 118.199 129.264 118.194 129.274 118.189L132.294 120.384L132.339 120.417L132.502 120.536L132.551 120.572L150.856 133.872C167.646 117.079 183.23 143.677 183.23 143.677L189.228 147.235Z" fill="#FFB0B1"/>
<path d="M132.738 120.537C132.722 120.649 132.676 120.753 132.605 120.836C132.534 120.92 132.44 120.979 132.336 121.008C132.267 121.028 132.196 121.039 132.125 121.04C131.625 121.049 130.931 120.678 130.312 120.072C129.709 119.48 129.333 118.815 129.28 118.314C129.332 118.262 129.287 118.276 129.346 118.232C129.376 118.208 129.508 118.125 129.541 118.106C129.991 118.343 130.488 118.538 131.172 119.209C131.987 119.881 131.851 119.86 132.533 120.378C132.587 120.385 132.271 120.749 132.271 120.749C132.307 120.708 132.474 120.399 132.489 120.345C132.499 120.401 132.504 120.29 132.489 120.345L132.533 120.378L132.69 120.5L132.738 120.537Z" fill="#3F3D56"/>
<path d="M137.848 154.484L137.831 154.479L137.605 154.607C137.325 154.691 137.071 154.761 136.314 154.385C135.676 154.072 134.938 153.884 134.292 153.773C134.323 153.705 134.36 153.19 134.403 153.128L134.681 152.697C134.7 152.669 134.72 152.641 134.741 152.614C135.325 152.603 135.897 152.739 136.403 153.009C137.234 153.422 137.8 154.008 137.848 154.484Z" fill="#3F3D56"/>
</g>
<defs>
<filter id="filter0_d_2889_7120" x="47" y="53" width="148.677" height="124" filterUnits="userSpaceOnUse" color-interpolation-filters="sRGB">
<feFlood flood-opacity="0" result="BackgroundImageFix"/>
<feColorMatrix in="SourceAlpha" type="matrix" values="0 0 0 0 0 0 0 0 0 0 0 0 0 0 0 0 0 0 127 0" result="hardAlpha"/>
<feOffset dy="4"/>
<feGaussianBlur stdDeviation="2"/>
<feComposite in2="hardAlpha" operator="out"/>
<feColorMatrix type="matrix" values="0 0 0 0 0 0 0 0 0 0 0 0 0 0 0 0 0 0 0.25 0"/>
<feBlend mode="normal" in2="BackgroundImageFix" result="effect1_dropShadow_2889_7120"/>
<feBlend mode="normal" in="SourceGraphic" in2="effect1_dropShadow_2889_7120" result="shape"/>
</filter>
</defs>
</svg>
