<svg width="20" height="18" viewBox="0 0 20 18" fill="none" xmlns="http://www.w3.org/2000/svg">
<path d="M19.7325 14.8603L11.7293 0.998301C11.3726 0.380592 10.7134 0 10.0001 0C9.28676 0 8.62778 0.380596 8.27085 0.998301L0.267687 14.8603C-0.0892289 15.4784 -0.0892289 16.2391 0.267687 16.8572C0.624429 17.4752 1.28359 17.8555 1.99691 17.8555H18.0032C18.7164 17.8555 19.3757 17.475 19.7325 16.8572C20.0892 16.2391 20.0892 15.4781 19.7323 14.8603H19.7325ZM1.99722 15.8588L10.0004 1.99633L18.0036 15.8584H1.99722V15.8588Z" fill="#AF2D2D"/>
<path d="M9.00159 6.60768V10.7742C9.00159 11.3256 9.44868 11.7725 9.99989 11.7725C10.5513 11.7725 10.9982 11.3254 10.9982 10.7742V6.60768C10.9982 6.05629 10.5511 5.60938 9.99989 5.60938C9.4485 5.60938 9.00159 6.05629 9.00159 6.60768Z" fill="#AF2D2D"/>
<path d="M10.9983 13.5374C10.9983 14.0888 10.5514 14.5357 10 14.5357C9.44862 14.5357 9.00171 14.0888 9.00171 13.5374C9.00171 12.986 9.44862 12.5391 10 12.5391C10.5514 12.5391 10.9983 12.986 10.9983 13.5374Z" fill="#AF2D2D"/>
</svg>
