<svg width="20" height="21" viewBox="0 0 20 21" fill="none" xmlns="http://www.w3.org/2000/svg">
<path d="M1.09479 14.8417C0.909282 14.8417 0.760877 14.7304 0.686674 14.582C-0.315063 12.1333 -0.20376 9.20232 0.909282 6.82783C1.68841 5.23247 2.80145 3.89682 4.1371 3.04349C4.69362 2.67248 5.25014 2.41277 5.73246 2.22726C5.95507 2.11595 6.21478 2.22726 6.28898 2.44987C6.40029 2.67248 6.28898 2.93219 6.06638 3.00639C5.62116 3.229 5.10174 3.4516 4.58232 3.78552C3.39508 4.56465 2.39334 5.75189 1.68841 7.19885C0.649573 9.38783 0.575369 12.022 1.4658 14.2852C1.54001 14.5078 1.4658 14.7675 1.2432 14.8417C1.20609 14.8417 1.13189 14.8417 1.09479 14.8417Z" fill="white"/>
<path d="M7.83589 3.43298C7.71052 3.29626 7.69452 3.05923 7.80616 2.90651L8.47831 1.93775L7.50955 1.2656C7.33175 1.12661 7.26333 0.887317 7.40459 0.657097C7.54358 0.479298 7.78287 0.410876 8.01309 0.552135L9.67024 1.70048L8.5219 3.35763C8.38291 3.53543 8.14361 3.60385 7.91339 3.46259C7.88605 3.48767 7.86097 3.46032 7.83589 3.43298Z" fill="white"/>
<path d="M9.51635 20.7039C8.0323 20.7039 6.65954 20.37 5.4723 19.7764C4.87868 19.4796 4.39636 19.1086 3.98824 18.8489C3.80274 18.7005 3.76564 18.4407 3.87694 18.2552C4.02534 18.0697 4.28506 18.0326 4.47056 18.1439C4.84158 18.4407 5.32389 18.7376 5.88041 19.0344C7.14186 19.7022 8.66302 19.9619 10.2955 19.8506C12.7071 19.6651 15.0445 18.4036 16.5285 16.4744C16.6769 16.2889 16.9366 16.2518 17.1221 16.4002C17.3076 16.5486 17.3447 16.8083 17.1963 16.9938C15.5639 19.0715 13.0039 20.4442 10.3326 20.6668C10.0729 20.6668 9.77606 20.7039 9.51635 20.7039Z" fill="white"/>
<path d="M1.94116 18.2802C1.85751 18.2068 1.79834 18.1055 1.81599 17.9729L1.76331 15.952L3.78422 15.8993C4.02154 15.9101 4.21672 16.0815 4.20588 16.3188C4.19504 16.5561 4.02371 16.7513 3.7864 16.7404L2.6311 16.7631L2.65373 17.9184C2.64289 18.1557 2.47156 18.3509 2.23425 18.34C2.10505 18.3747 1.99693 18.3292 1.94116 18.2802Z" fill="white"/>
<path d="M18.7551 12.8011H18.718C18.4953 12.764 18.3098 12.5785 18.3469 12.3188L18.384 12.1333C18.4582 11.5768 18.4953 10.9832 18.4582 10.2783C18.384 8.8684 17.8646 7.38434 16.9371 6.04869C15.5643 4.04522 13.3011 2.67247 10.8896 2.33855C10.667 2.30145 10.4814 2.07884 10.5185 1.85623C10.5556 1.63363 10.7783 1.44812 11.0009 1.48522C13.6351 1.85623 16.1209 3.37739 17.6049 5.56637C18.6066 7.05043 19.2003 8.64579 19.2745 10.2411C19.3116 10.9832 19.2374 11.651 19.2003 12.2075L19.1632 12.393C19.1632 12.6156 18.9777 12.8011 18.7551 12.8011Z" fill="white"/>
<path d="M17.7942 15.5759L16.9103 13.7612C16.8124 13.5479 16.899 13.3146 17.087 13.1896C17.3003 13.0918 17.5336 13.1784 17.6585 13.3663L18.1747 14.4074L19.2158 13.8912C19.4291 13.7934 19.6625 13.88 19.7874 14.0679C19.8852 14.2812 19.7986 14.5146 19.6107 14.6395L17.7942 15.5759Z" fill="white"/>
<path d="M13.912 8.28122C13.5337 7.48216 12.444 6.82839 11.1765 7.20903C10.5708 7.38911 10.0424 7.77528 9.67748 8.30447C9.3126 7.77528 8.78415 7.38911 8.17846 7.20903C6.9081 6.8342 5.82124 7.48216 5.44295 8.28122C4.91222 9.39991 5.13242 10.6581 6.09789 12.0208C6.85446 13.0872 7.93568 14.1681 9.50527 15.4234C9.55488 15.4632 9.61598 15.4848 9.67889 15.4848C9.7418 15.4848 9.8029 15.4632 9.8525 15.4234C11.4193 14.171 12.5033 13.0988 13.2599 12.0208C14.2225 10.6581 14.4427 9.39991 13.912 8.28122Z" fill="white"/>
</svg>
