<svg width="20" height="20" viewBox="0 0 20 20" fill="none" xmlns="http://www.w3.org/2000/svg">
<path d="M1.57473 14.3341C1.39552 14.3341 1.25215 14.2265 1.18046 14.0832C0.212718 11.7176 0.320245 8.88602 1.39552 6.59211C2.14821 5.05088 3.22348 3.76056 4.5138 2.93618C5.05144 2.57776 5.58907 2.32686 6.05502 2.14765C6.27008 2.04012 6.52098 2.14765 6.59266 2.36271C6.70019 2.57776 6.59266 2.82866 6.37761 2.90034C5.9475 3.1154 5.4457 3.33045 4.94391 3.65303C3.79696 4.40572 2.82921 5.55268 2.14821 6.95053C1.14462 9.06523 1.07293 11.61 1.93315 13.7964C2.00484 14.0115 1.93315 14.2624 1.7181 14.3341C1.68226 14.3341 1.61057 14.3341 1.57473 14.3341Z" fill="white"/>
<path d="M8.0868 3.31648C7.96568 3.1844 7.95022 2.95542 8.05808 2.80788L8.70742 1.87199L7.77153 1.22265C7.59976 1.08838 7.53366 0.857206 7.67013 0.634799C7.8044 0.463034 8.03558 0.396933 8.25799 0.533399L9.8589 1.64278L8.74952 3.24369C8.61525 3.41546 8.38408 3.48156 8.16167 3.34509C8.13525 3.36932 8.11103 3.3429 8.0868 3.31648Z" fill="white"/>
<path d="M9.71031 20.0001C8.27661 20.0001 6.95044 19.6775 5.80349 19.104C5.23001 18.8173 4.76406 18.4589 4.36979 18.208C4.19058 18.0646 4.15474 17.8137 4.26227 17.6345C4.40564 17.4553 4.65653 17.4194 4.83574 17.527C5.19417 17.8137 5.66012 18.1004 6.19775 18.3872C7.4164 19.0323 8.88593 19.2832 10.463 19.1757C12.7928 18.9965 15.0508 17.7779 16.4845 15.9141C16.6279 15.7348 16.8788 15.699 17.058 15.8424C17.2372 15.9857 17.273 16.2366 17.1297 16.4158C15.5526 18.423 13.0795 19.7492 10.4988 19.9642C10.2479 19.9642 9.96121 20.0001 9.71031 20.0001Z" fill="white"/>
<path d="M2.39208 17.6596C2.31127 17.5886 2.2541 17.4908 2.27116 17.3627L2.22026 15.4103L4.1726 15.3594C4.40186 15.3699 4.59042 15.5354 4.57995 15.7647C4.56947 15.994 4.40396 16.1825 4.1747 16.172L3.05861 16.1939L3.08047 17.31C3.07 17.5393 2.90448 17.7278 2.67522 17.7173C2.55041 17.7509 2.44596 17.7069 2.39208 17.6596Z" fill="white"/>
<path d="M18.6354 12.3662H18.5996C18.3845 12.3304 18.2053 12.1511 18.2412 11.9003L18.277 11.721C18.3487 11.1834 18.3845 10.6099 18.3487 9.92892C18.277 8.56691 17.7752 7.13322 16.8791 5.84289C15.553 3.9074 13.3666 2.58123 11.0368 2.25865C10.8218 2.22281 10.6426 2.00776 10.6784 1.7927C10.7143 1.57765 10.9293 1.39843 11.1444 1.43428C13.6892 1.7927 16.0906 3.26224 17.5243 5.37694C18.4921 6.81063 19.0655 8.35185 19.1372 9.89308C19.1731 10.6099 19.1014 11.2551 19.0655 11.7927L19.0297 11.9719C19.0297 12.187 18.8505 12.3662 18.6354 12.3662Z" fill="white"/>
<path d="M17.7078 15.0487L16.8539 13.2956C16.7594 13.0895 16.843 12.8641 17.0246 12.7434C17.2306 12.6489 17.4561 12.7326 17.5767 12.9141L18.0754 13.9199L19.0812 13.4212C19.2873 13.3267 19.5127 13.4104 19.6334 13.5919C19.7279 13.798 19.6442 14.0234 19.4626 14.1441L17.7078 15.0487Z" fill="white"/>
<path d="M7.91861 13.0848C6.59244 13.0848 5.48132 12.0095 5.48132 10.6475V8.03103C5.48132 6.70486 6.5566 5.59375 7.91861 5.59375C9.28062 5.59375 10.3559 6.66902 10.3559 8.03103V10.6834C10.3559 12.0095 9.28062 13.0848 7.91861 13.0848ZM7.91861 6.41812C7.02255 6.41812 6.3057 7.13497 6.3057 8.03103V10.6834C6.3057 11.5794 7.02255 12.2963 7.91861 12.2963C8.81467 12.2963 9.53151 11.5794 9.53151 10.6834V8.03103C9.53151 7.13497 8.81467 6.41812 7.91861 6.41812Z" fill="white"/>
<path d="M13.9759 15.3443H11.7895C11.682 15.3443 11.5745 15.3085 11.4669 15.2009C11.3952 15.1293 11.3594 14.9859 11.3594 14.8784C11.4311 14.2332 11.8612 13.6956 12.1479 13.3371C12.2196 13.2296 12.3271 13.1221 12.4347 13.0504C12.6856 12.7995 12.9006 12.5486 13.0798 12.2619C13.259 11.9751 13.3666 11.545 13.2232 11.2224C13.1515 11.0791 13.044 10.9715 12.9006 10.9357C12.6856 10.8282 12.3988 10.864 12.2555 11.0074L12.2196 11.0432C12.1838 11.0791 12.1121 11.1866 12.0046 11.5092C11.9329 11.7242 11.7178 11.8676 11.5028 11.7959C11.2877 11.7242 11.1444 11.5092 11.216 11.2941C11.3952 10.7206 11.6103 10.4697 11.7537 10.3981C12.1838 10.0396 12.7931 9.96795 13.2949 10.2188C13.5816 10.3622 13.8325 10.6131 13.9759 10.8999C14.2268 11.4375 14.191 12.1185 13.8325 12.7278C13.6175 13.0862 13.3307 13.373 13.0798 13.6597C13.0082 13.7672 12.9006 13.8389 12.8289 13.9465C12.6856 14.1257 12.5064 14.3407 12.3988 14.5916H14.0117C14.2268 14.5916 14.406 14.7708 14.406 14.9859C14.3702 15.1651 14.191 15.3443 13.9759 15.3443Z" fill="white"/>
</svg>
