<svg width="20" height="20" viewBox="0 0 20 20" fill="none" xmlns="http://www.w3.org/2000/svg">
<path d="M1.05774 14.3378C0.878534 14.3378 0.735167 14.2302 0.663484 14.0869C-0.304245 11.7213 -0.19672 8.88981 0.878534 6.59594C1.63121 5.05474 2.70647 3.76444 3.99677 2.94008C4.5344 2.58166 5.07202 2.33077 5.53797 2.15156C5.75302 2.04403 6.00391 2.15156 6.07559 2.36661C6.18312 2.58166 6.07559 2.83255 5.86054 2.90424C5.43044 3.11929 4.92866 3.33434 4.42687 3.65691C3.27993 4.40959 2.31221 5.55653 1.63121 6.95436C0.627642 9.06902 0.555958 11.6138 1.41616 13.8001C1.48784 14.0152 1.41616 14.2661 1.20111 14.3378C1.16527 14.3378 1.09358 14.3378 1.05774 14.3378Z" fill="white"/>
<path d="M7.56996 3.31643C7.44884 3.18435 7.43338 2.95537 7.54124 2.80783L8.19056 1.87196L7.25469 1.22263C7.08293 1.08836 7.01683 0.857192 7.1533 0.634789C7.28757 0.463026 7.51874 0.396926 7.74114 0.53339L9.34203 1.64275L8.23267 3.24364C8.0984 3.4154 7.86723 3.4815 7.64483 3.34504C7.61841 3.36926 7.59419 3.34284 7.56996 3.31643Z" fill="white"/>
<path d="M9.19349 20C7.75982 20 6.43368 19.6774 5.28674 19.104C4.71327 18.8172 4.24733 18.4588 3.85307 18.2079C3.67386 18.0646 3.63802 17.8137 3.74554 17.6345C3.88891 17.4553 4.1398 17.4194 4.31901 17.5269C4.67743 17.8137 5.14337 18.1004 5.681 18.3871C6.89962 19.0323 8.36913 19.2832 9.94617 19.1757C12.2759 18.9964 14.5339 17.7778 15.9676 15.9141C16.111 15.7348 16.3619 15.699 16.5411 15.8424C16.7203 15.9857 16.7561 16.2366 16.6127 16.4158C15.0357 18.423 12.5626 19.7491 9.98201 19.9642C9.73112 19.9642 9.44439 20 9.19349 20Z" fill="white"/>
<path d="M1.87549 17.6595C1.79468 17.5886 1.73752 17.4907 1.75457 17.3626L1.70368 15.4103L3.65598 15.3594C3.88524 15.3699 4.0738 15.5354 4.06332 15.7647C4.05285 15.9939 3.88734 16.1825 3.65808 16.172L2.54201 16.1939L2.56387 17.3099C2.5534 17.5392 2.38789 17.7278 2.15863 17.7173C2.03382 17.7508 1.92937 17.7068 1.87549 17.6595Z" fill="white"/>
<path d="M18.1183 12.366H18.0825C17.8674 12.3302 17.6882 12.151 17.7241 11.9001L17.7599 11.7209C17.8316 11.1832 17.8674 10.6098 17.8316 9.92878C17.7599 8.56679 17.2581 7.13312 16.3621 5.84282C15.0359 3.90736 12.8496 2.58122 10.5199 2.25864C10.3048 2.2228 10.1256 2.00775 10.1615 1.7927C10.1973 1.57764 10.4123 1.39844 10.6274 1.43428C13.1722 1.7927 15.5736 3.26221 17.0072 5.37687C17.975 6.81055 18.5484 8.35174 18.6201 9.89294C18.656 10.6098 18.5843 11.2549 18.5484 11.7926L18.5126 11.9718C18.5126 12.1868 18.3334 12.366 18.1183 12.366Z" fill="white"/>
<path d="M17.1904 15.0486L16.3364 13.2955C16.2419 13.0895 16.3256 12.8641 16.5072 12.7434C16.7132 12.6489 16.9386 12.7326 17.0593 12.9141L17.558 13.9199L18.5637 13.4212C18.7698 13.3267 18.9952 13.4103 19.1159 13.5919C19.2104 13.7979 19.1267 14.0234 18.9452 14.144L17.1904 15.0486Z" fill="white"/>
<path d="M10.1149 11.6802V10.6423H10.6122C10.6894 10.6423 10.7634 10.613 10.8179 10.5608C10.8725 10.5086 10.9031 10.4378 10.9031 10.364C10.9031 10.2902 10.8725 10.2195 10.8179 10.1673C10.7634 10.1151 10.6894 10.0858 10.6122 10.0858H10.1149V9.25102H10.6122C10.6894 9.25102 10.7634 9.2217 10.8179 9.16952C10.8725 9.11734 10.9031 9.04656 10.9031 8.97276C10.9031 8.89897 10.8725 8.82819 10.8179 8.77601C10.7634 8.72382 10.6894 8.69451 10.6122 8.69451H10.1149V7.85975H10.6122C10.6894 7.85975 10.7634 7.83043 10.8179 7.77825C10.8725 7.72606 10.9031 7.65529 10.9031 7.58149C10.9031 7.50769 10.8725 7.43692 10.8179 7.38473C10.7634 7.33255 10.6894 7.30324 10.6122 7.30324H10.1149V6.58812C10.1005 6.32396 9.98073 6.07515 9.78021 5.89303C9.57969 5.71091 9.31375 5.60938 9.03725 5.60938C8.76076 5.60938 8.49482 5.71091 8.2943 5.89303C8.09378 6.07515 7.97398 6.32396 7.95963 6.58812V11.6802C7.54099 11.9077 7.21281 12.2614 7.02624 12.6861C6.83968 13.1107 6.80521 13.5825 6.92823 14.0278C7.05124 14.4732 7.32481 14.8671 7.7063 15.1481C8.08779 15.4292 8.55576 15.5816 9.03725 15.5816C9.51875 15.5816 9.98672 15.4292 10.3682 15.1481C10.7497 14.8671 11.0233 14.4732 11.1463 14.0278C11.2693 13.5825 11.2348 13.1107 11.0483 12.6861C10.8617 12.2614 10.5335 11.9077 10.1149 11.6802ZM9.03871 15.0192C8.63954 15.0182 8.25503 14.8753 7.95991 14.6181C7.6648 14.361 7.48017 14.0081 7.44191 13.628C7.47681 13.653 7.50881 13.6808 7.54662 13.7114C7.65541 13.8222 7.78677 13.9105 7.93258 13.9708C8.0784 14.0312 8.23559 14.0623 8.39446 14.0623C8.55334 14.0623 8.71053 14.0312 8.85634 13.9708C9.00216 13.9105 9.13351 13.8222 9.24231 13.7114C9.29964 13.6459 9.37128 13.5933 9.45218 13.5571C9.53309 13.521 9.62129 13.5023 9.71059 13.5023C9.79988 13.5023 9.88808 13.521 9.96899 13.5571C10.0499 13.5933 10.1215 13.6459 10.1789 13.7114C10.2921 13.8126 10.4205 13.897 10.5599 13.9619C10.4543 14.2685 10.2506 14.5356 9.97762 14.7254C9.70462 14.9151 9.37616 15.0179 9.03871 15.0192Z" fill="white"/>
</svg>
