<svg width="16" height="27" viewBox="0 0 16 27" fill="none" xmlns="http://www.w3.org/2000/svg">
<path d="M2.13701 26C2.30998 26.0048 2.48193 25.972 2.64096 25.9038C2.79999 25.8356 2.94229 25.7337 3.05801 25.605L14.241 14.421C14.3657 14.3022 14.465 14.1593 14.5329 14.001C14.6007 13.8427 14.6357 13.6723 14.6357 13.5C14.6357 13.3278 14.6007 13.1573 14.5329 12.999C14.465 12.8407 14.3657 12.6978 14.241 12.579L3.05801 1.39602C2.81375 1.15175 2.48245 1.01453 2.13701 1.01453C1.79157 1.01453 1.46028 1.15175 1.21602 1.39602C0.971754 1.64028 0.834518 1.97157 0.834518 2.31702C0.834518 2.66246 0.971754 2.99375 1.21602 3.23802L11.351 13.5L1.08501 23.763C0.960297 23.8818 0.861021 24.0247 0.793182 24.183C0.725344 24.3413 0.690369 24.5118 0.690369 24.684C0.690369 24.8563 0.725344 25.0267 0.793182 25.185C0.861021 25.3433 0.960297 25.4862 1.08501 25.605C1.3715 25.8683 1.74907 26.0099 2.13802 26H2.13701Z" fill="black" stroke="black"/>
</svg>
