<svg width="45" height="46" viewBox="0 0 45 46" fill="none" xmlns="http://www.w3.org/2000/svg">
<path d="M18.1979 32.32C18.5254 32.6475 18.9697 32.8316 19.4329 32.8316C19.8961 32.8316 20.3403 32.6475 20.6679 32.32C20.9954 31.9925 21.1794 31.5482 21.1794 31.085C21.1794 30.6218 20.9954 30.1775 20.6679 29.85L15.6349 24.771H33.6689C34.1386 24.771 34.589 24.5844 34.9212 24.2523C35.2533 23.9202 35.4399 23.4697 35.4399 23C35.4399 22.5303 35.2533 22.0798 34.9212 21.7477C34.589 21.4156 34.1386 21.229 33.6689 21.229H15.6349L20.7139 16.15C20.8797 15.9899 21.0115 15.798 21.1016 15.5858C21.1916 15.3736 21.238 15.1455 21.238 14.915C21.238 14.6845 21.1916 14.4564 21.1016 14.2442C21.0115 14.032 20.8797 13.8401 20.7139 13.68C20.3777 13.3512 19.9261 13.1671 19.4559 13.167C18.9874 13.1758 18.5389 13.3587 18.1979 13.68L10.1359 21.742C9.80697 22.0783 9.6228 22.5301 9.6228 23.0005C9.6228 23.4709 9.80697 23.9227 10.1359 24.259L18.1979 32.32Z" fill="white"/>
<path d="M22.531 45.135C26.9086 45.135 31.188 43.8369 34.8279 41.4048C38.4678 38.9727 41.3047 35.5159 42.98 31.4715C44.6553 27.4271 45.0937 22.9768 44.2397 18.6832C43.3858 14.3897 41.2778 10.4458 38.1824 7.35025C35.087 4.25472 31.1432 2.14658 26.8497 1.29242C22.5562 0.438261 18.1058 0.876446 14.0613 2.55156C10.0169 4.22668 6.55994 7.06349 4.12771 10.7033C1.69547 14.3431 0.39717 18.6223 0.396973 23C0.402268 28.8688 2.7359 34.4957 6.88566 38.6456C11.0354 42.7955 16.6622 45.1294 22.531 45.135V45.135ZM22.531 4.361C26.2176 4.361 29.8215 5.45422 32.8868 7.50241C35.9521 9.55059 38.3413 12.4618 39.7521 15.8678C41.1629 19.2738 41.532 23.0217 40.8128 26.6375C40.0936 30.2533 38.3183 33.5746 35.7114 36.1815C33.1046 38.7883 29.7833 40.5636 26.1675 41.2828C22.5517 42.0021 18.8038 41.6329 15.3978 40.2221C11.9917 38.8113 9.08057 36.4222 7.03238 33.3568C4.98419 30.2915 3.89098 26.6876 3.89098 23.001C3.90522 18.0617 5.87365 13.3289 9.36624 9.83627C12.8588 6.34367 17.5917 4.37525 22.531 4.361V4.361Z" fill="white"/>
</svg>
