<svg width="77" height="62" viewBox="0 0 77 62" fill="none" xmlns="http://www.w3.org/2000/svg">
<path d="M71.725 26.255H5.60901C4.35056 26.255 3.14366 26.7549 2.2538 27.6448C1.36394 28.5347 0.864014 29.7416 0.864014 31C0.864014 32.2585 1.36394 33.4654 2.2538 34.3552C3.14366 35.2451 4.35056 35.745 5.60901 35.745H71.879C72.5053 35.7564 73.1274 35.6415 73.7083 35.407C74.2891 35.1726 74.8167 34.8235 75.2596 34.3806C75.7025 33.9377 76.0516 33.4101 76.286 32.8292C76.5205 32.2484 76.6354 31.6263 76.624 31C76.6169 30.3658 76.4842 29.7393 76.2335 29.1567C75.9828 28.5741 75.6191 28.047 75.1635 27.6058C74.7078 27.1645 74.1693 26.818 73.5789 26.5861C72.9886 26.3543 72.3581 26.2418 71.724 26.255H71.725Z" fill="white"/>
<path d="M71.725 3.00421e-06H33.852C32.5935 3.00421e-06 31.3866 0.499913 30.4968 1.38977C29.6069 2.27963 29.107 3.48655 29.107 4.745C29.107 6.00345 29.6069 7.21036 30.4968 8.10022C31.3866 8.99008 32.5935 9.48999 33.852 9.48999H71.879C72.5053 9.50138 73.1274 9.38644 73.7082 9.15201C74.2891 8.91759 74.8167 8.5685 75.2596 8.1256C75.7025 7.68269 76.0516 7.15506 76.286 6.57422C76.5204 5.99338 76.6354 5.37125 76.624 4.745C76.6169 4.11079 76.4841 3.48429 76.2334 2.90169C75.9827 2.31909 75.619 1.79196 75.1634 1.35074C74.7078 0.909526 74.1692 0.562978 73.5789 0.331134C72.9885 0.0992902 72.3581 -0.0132505 71.724 3.00421e-06H71.725Z" fill="white"/>
<path d="M71.725 52.51H50.798C49.5396 52.51 48.3326 53.0099 47.4428 53.8998C46.5529 54.7896 46.053 55.9966 46.053 57.255C46.053 58.5135 46.5529 59.7204 47.4428 60.6102C48.3326 61.5001 49.5396 62 50.798 62H71.879C72.5053 62.0114 73.1274 61.8964 73.7082 61.662C74.2891 61.4276 74.8167 61.0785 75.2596 60.6356C75.7025 60.1927 76.0516 59.6651 76.286 59.0842C76.5205 58.5034 76.6354 57.8813 76.624 57.255C76.6169 56.6208 76.4841 55.9943 76.2334 55.4117C75.9827 54.8291 75.6191 54.302 75.1635 53.8608C74.7078 53.4195 74.1693 53.073 73.5789 52.8412C72.9886 52.6093 72.3581 52.4968 71.724 52.51H71.725Z" fill="white"/>
</svg>
