<svg width="36" height="42" viewBox="0 0 36 42" fill="none" xmlns="http://www.w3.org/2000/svg">
<path d="M5.518 18.334C5.518 26.694 3.61801 29.249 2.45201 29.992C1.83402 30.4089 1.3663 31.0134 1.11778 31.7162C0.869253 32.419 0.853068 33.1831 1.0716 33.8959C1.29014 34.6086 1.73184 35.2323 2.33161 35.675C2.93139 36.1178 3.65753 36.3561 4.40301 36.355H12.531V36.444C12.7235 37.8312 13.4099 39.1024 14.4642 40.0243C15.5186 40.9461 16.8701 41.4567 18.2705 41.4623C19.671 41.4679 21.0266 40.9681 22.0882 40.0547C23.1499 39.1413 23.8464 37.8756 24.05 36.49V36.397H31.25C32.1717 36.3902 33.0536 36.0211 33.7053 35.3693C34.3571 34.7176 34.7262 33.8356 34.733 32.914C34.7369 32.3444 34.5987 31.7828 34.3311 31.2799C34.0634 30.7771 33.6747 30.3489 33.2 30.034C32.039 29.244 30.135 26.69 30.135 18.376C30.135 10.576 25.397 7.461 21.914 6.161C21.9679 5.86953 21.999 5.5743 22.007 5.278C22.007 4.16939 21.5666 3.10619 20.7827 2.32229C19.9988 1.53839 18.9356 1.098 17.827 1.098C16.7184 1.098 15.6552 1.53839 14.8713 2.32229C14.0874 3.10619 13.647 4.16939 13.647 5.278C13.6549 5.57431 13.686 5.86955 13.74 6.161C10.256 7.369 5.51901 10.527 5.51901 18.33L5.518 18.334ZM18.291 39.607C17.5334 39.6109 16.7913 39.3931 16.1559 38.9806C15.5205 38.568 15.0197 37.9786 14.715 37.285H21.915C21.5951 37.9772 21.084 38.5636 20.4419 38.975C19.7999 39.3864 19.0536 39.6057 18.291 39.607ZM17.826 2.915C18.1317 2.91206 18.435 2.97012 18.7181 3.08577C19.0011 3.20142 19.2582 3.37234 19.4745 3.58855C19.6907 3.80475 19.8616 4.0619 19.9772 4.34494C20.0929 4.62799 20.1509 4.93125 20.148 5.237C20.1557 5.36277 20.1401 5.48888 20.102 5.609C18.5843 5.2992 17.0197 5.2992 15.502 5.609C15.502 5.47 15.456 5.377 15.456 5.237C15.4683 4.61688 15.7233 4.02633 16.1663 3.59217C16.6092 3.15801 17.2048 2.91488 17.825 2.915H17.826ZM15.361 7.559H15.407C16.2085 7.33643 17.0372 7.22703 17.869 7.234C18.6885 7.23127 19.5033 7.35678 20.284 7.606H20.33C23.953 8.628 28.319 11.322 28.319 18.381C28.319 22.793 28.83 26.181 29.852 28.506H13.181C13.059 28.506 12.9382 28.53 12.8255 28.5767C12.7128 28.6234 12.6104 28.6918 12.5241 28.7781C12.4378 28.8644 12.3694 28.9668 12.3227 29.0795C12.276 29.1922 12.252 29.313 12.252 29.435C12.252 29.557 12.276 29.6778 12.3227 29.7905C12.3694 29.9032 12.4378 30.0056 12.5241 30.0919C12.6104 30.1782 12.7128 30.2466 12.8255 30.2933C12.9382 30.34 13.059 30.364 13.181 30.364H30.881C31.227 30.8353 31.6511 31.2438 32.135 31.572C32.3572 31.7211 32.5405 31.9212 32.6697 32.1555C32.799 32.3898 32.8704 32.6515 32.878 32.919C32.8728 33.3486 32.6998 33.7592 32.396 34.063C32.0922 34.3668 31.6816 34.5398 31.252 34.545H4.40301C3.97338 34.5398 3.5628 34.3668 3.25898 34.063C2.95517 33.7592 2.78219 33.3486 2.777 32.919C2.7737 32.6494 2.84043 32.3835 2.97067 32.1474C3.1009 31.9113 3.29018 31.713 3.52 31.572C6.075 29.807 7.37501 25.395 7.37501 18.381C7.37501 11.275 11.695 8.581 15.364 7.559H15.361Z" fill="#135EEF" stroke="#1463EF"/>
<path d="M8.58401 29.761C8.58401 29.807 8.63 29.854 8.677 29.9C8.724 29.946 8.723 29.993 8.77 30.039C8.85146 30.1168 8.94589 30.1797 9.04901 30.225C9.17661 30.2953 9.32166 30.3275 9.46701 30.318C9.58843 30.3169 9.70841 30.2916 9.81999 30.2437C9.93157 30.1958 10.0325 30.1262 10.117 30.039C10.163 29.993 10.21 29.946 10.21 29.9C10.256 29.854 10.256 29.807 10.303 29.761C10.35 29.715 10.349 29.668 10.349 29.575V29.204C10.349 29.158 10.303 29.065 10.303 29.018C10.303 28.971 10.257 28.925 10.21 28.879C10.163 28.833 10.164 28.786 10.117 28.74C10.07 28.694 10.024 28.647 9.97801 28.647C9.93201 28.647 9.885 28.601 9.839 28.554C9.793 28.554 9.74602 28.508 9.65302 28.508C9.50522 28.4883 9.35497 28.4987 9.2113 28.5386C9.06764 28.5785 8.93352 28.647 8.817 28.74C8.771 28.786 8.72401 28.833 8.72401 28.879C8.67801 28.925 8.67801 28.972 8.63101 29.018C8.58401 29.064 8.58501 29.111 8.58501 29.204V29.575C8.58501 29.621 8.58501 29.668 8.58501 29.761H8.58401Z" fill="#135EEF" stroke="#1463EF"/>
</svg>
