<svg width="31" height="31" viewBox="0 0 31 31" fill="none" xmlns="http://www.w3.org/2000/svg">
<path d="M27.9921 15.772C27.9916 16.3934 27.9505 17.014 27.8691 17.63C27.8831 17.53 27.8941 17.443 27.9081 17.348C27.7436 18.5583 27.4198 19.7416 26.9451 20.867L27.0511 20.613C26.7774 21.2563 26.4569 21.8786 26.0921 22.475C25.9121 22.764 25.7251 23.046 25.5241 23.321C25.4781 23.384 25.4321 23.444 25.3861 23.508C25.3581 23.543 25.3301 23.582 25.3011 23.617C25.1881 23.769 25.4701 23.402 25.3541 23.55C25.2381 23.698 25.1421 23.814 25.0331 23.945C24.5905 24.4678 24.1095 24.9569 23.5941 25.408C23.4741 25.514 23.3511 25.62 23.2241 25.722C23.1641 25.771 23.1041 25.822 23.0441 25.867C22.9841 25.912 22.8321 26.026 23.1111 25.814C23.0621 25.853 23.0111 25.888 22.9631 25.927C22.6911 26.127 22.4131 26.327 22.1271 26.505C21.4724 26.9229 20.7836 27.2849 20.0681 27.587L20.3221 27.481C19.1961 27.9541 18.013 28.2779 16.8031 28.444C16.9031 28.43 16.9901 28.419 17.0851 28.405C15.8504 28.5672 14.5998 28.5672 13.3651 28.405C13.4651 28.419 13.5521 28.43 13.6471 28.444C12.4367 28.2796 11.2535 27.9557 10.1281 27.481L10.3821 27.587C9.73876 27.3133 9.11643 26.9928 8.52007 26.628C8.23107 26.448 7.94907 26.261 7.67407 26.06L7.48707 25.922L7.37807 25.837C7.22607 25.724 7.59306 26.006 7.44506 25.89C7.29706 25.774 7.18107 25.678 7.05007 25.569C6.52723 25.1265 6.0382 24.6455 5.58707 24.13C5.48107 24.01 5.37506 23.887 5.27306 23.76C5.22406 23.7 5.17307 23.64 5.12807 23.58C5.08307 23.52 4.96906 23.368 5.18106 23.647C5.14206 23.598 5.10706 23.547 5.06806 23.499C4.86806 23.228 4.66807 22.949 4.49007 22.663C4.07212 22.0083 3.71017 21.3196 3.40807 20.604L3.51406 20.858C3.04094 19.732 2.71719 18.549 2.55106 17.339C2.56506 17.439 2.57607 17.526 2.59007 17.621C2.42786 16.3863 2.42786 15.1357 2.59007 13.901C2.57607 14.001 2.56506 14.088 2.55106 14.183C2.71552 12.9727 3.03933 11.7894 3.51406 10.664L3.40807 10.918C3.68174 10.2747 4.00227 9.65237 4.36707 9.05601C4.54707 8.76701 4.73407 8.48501 4.93507 8.21001C4.98107 8.14701 5.02707 8.08701 5.07307 8.02301C5.10107 7.98801 5.12907 7.94901 5.15807 7.91401C5.27107 7.76201 4.98907 8.12901 5.10507 7.98101C5.22107 7.83301 5.31706 7.71701 5.42606 7.58601C5.86861 7.06317 6.34962 6.57414 6.86507 6.12301C6.98507 6.01701 7.10806 5.91101 7.23506 5.80901C7.29506 5.76001 7.35506 5.70901 7.41506 5.66401C7.47506 5.61901 7.62706 5.50501 7.34806 5.71701C7.39706 5.67801 7.44806 5.64301 7.49606 5.60401C7.76706 5.40401 8.04606 5.20401 8.33206 5.02601C8.98674 4.60806 9.67551 4.24611 10.3911 3.94401L10.1371 4.05001C11.263 3.57688 12.4461 3.25314 13.6561 3.08701C13.5561 3.10101 13.4691 3.11201 13.3741 3.12601C14.6088 2.9638 15.8594 2.9638 17.0941 3.12601C16.9941 3.11201 16.9071 3.10101 16.8121 3.08701C18.0224 3.25148 19.2056 3.57528 20.3311 4.05001L20.0771 3.94401C20.7204 4.21767 21.3427 4.5382 21.9391 4.90301C22.2281 5.08301 22.5101 5.27001 22.7851 5.47101L22.9721 5.60901L23.0811 5.69401C23.2331 5.80701 22.8661 5.52501 23.0141 5.64101C23.1621 5.75701 23.2781 5.85301 23.4091 5.96201C23.9319 6.40456 24.4209 6.88556 24.8721 7.40101C24.9781 7.52101 25.0841 7.64401 25.1861 7.77101C25.2351 7.83101 25.2861 7.89101 25.3311 7.95101C25.3761 8.01101 25.4901 8.16301 25.2781 7.88401C25.3171 7.93301 25.3521 7.98401 25.3911 8.03201C25.5911 8.30301 25.7911 8.58201 25.9691 8.86801C26.3882 9.52125 26.7515 10.2087 27.0551 10.923L26.9491 10.669C27.4222 11.795 27.7459 12.978 27.9121 14.188C27.8981 14.088 27.8871 14.001 27.8731 13.906C27.9544 14.5233 27.9955 15.1453 27.9961 15.768C27.9961 16.0486 28.1075 16.3177 28.3059 16.5161C28.5044 16.7145 28.7735 16.826 29.0541 16.826C29.3347 16.826 29.6038 16.7145 29.8022 16.5161C30.0006 16.3177 30.1121 16.0486 30.1121 15.768C30.1138 12.7089 29.1708 9.72396 27.4121 7.22101C25.6403 4.72749 23.1564 2.82747 20.2861 1.77001C17.4146 0.730809 14.2926 0.60212 11.3453 1.40147C8.3981 2.20083 5.76894 3.88935 3.81606 6.23701C2.8226 7.44189 2.01777 8.79058 1.42906 10.237C0.571494 12.374 0.221954 14.6811 0.407983 16.9762C0.594011 19.2714 1.31053 21.492 2.50107 23.463C4.04443 26.0119 6.3166 28.0396 9.02407 29.284C10.4805 29.9423 12.0303 30.3704 13.6181 30.553C17.4069 30.9712 21.2116 29.9174 24.2454 27.6095C27.2792 25.3016 29.31 21.9161 29.9181 18.153C30.0427 17.3656 30.1096 16.5702 30.1181 15.773C30.1181 15.4924 30.0066 15.2233 29.8082 15.0249C29.6098 14.8265 29.3407 14.715 29.0601 14.715C28.7795 14.715 28.5104 14.8265 28.3119 15.0249C28.1135 15.2233 28.0021 15.4924 28.0021 15.773L27.9921 15.772Z" fill="white" stroke="white" stroke-width="0.5"/>
<path d="M16.251 22.525V13.816C16.251 13.6771 16.2236 13.5395 16.1705 13.4111C16.1173 13.2828 16.0394 13.1661 15.9411 13.0679C15.8429 12.9696 15.7263 12.8917 15.5979 12.8385C15.4695 12.7854 15.332 12.758 15.193 12.758C15.0541 12.758 14.9165 12.7854 14.7881 12.8385C14.6598 12.8917 14.5431 12.9696 14.4449 13.0679C14.3466 13.1661 14.2687 13.2828 14.2155 13.4111C14.1624 13.5395 14.135 13.6771 14.135 13.816V22.525C14.135 22.6639 14.1624 22.8015 14.2155 22.9299C14.2687 23.0582 14.3466 23.1749 14.4449 23.2731C14.5431 23.3714 14.6598 23.4493 14.7881 23.5025C14.9165 23.5556 15.0541 23.583 15.193 23.583C15.332 23.583 15.4695 23.5556 15.5979 23.5025C15.7263 23.4493 15.8429 23.3714 15.9411 23.2731C16.0394 23.1749 16.1173 23.0582 16.1705 22.9299C16.2236 22.8015 16.251 22.6639 16.251 22.525Z" fill="white" stroke="white" stroke-width="0.5"/>
<path d="M16.251 9.90201V8.95C16.251 8.81106 16.2236 8.67348 16.1705 8.54512C16.1173 8.41676 16.0394 8.30013 15.9411 8.20189C15.8429 8.10364 15.7263 8.0257 15.5979 7.97253C15.4695 7.91936 15.332 7.892 15.193 7.892C15.0541 7.892 14.9165 7.91936 14.7881 7.97253C14.6598 8.0257 14.5431 8.10364 14.4449 8.20189C14.3466 8.30013 14.2687 8.41676 14.2155 8.54512C14.1624 8.67348 14.135 8.81106 14.135 8.95V9.90201C14.135 10.1826 14.2465 10.4517 14.4449 10.6501C14.6433 10.8485 14.9124 10.96 15.193 10.96C15.4736 10.96 15.7427 10.8485 15.9411 10.6501C16.1395 10.4517 16.251 10.1826 16.251 9.90201Z" fill="white" stroke="white" stroke-width="0.5"/>
</svg>
