<svg width="59" height="57" viewBox="0 0 59 57" fill="none" xmlns="http://www.w3.org/2000/svg">
<path d="M17.4229 29.644C22.5597 29.644 26.7239 25.6481 26.7239 20.719C26.7239 15.7899 22.5597 11.794 17.4229 11.794C12.2861 11.794 8.12195 15.7899 8.12195 20.719C8.12195 25.6481 12.2861 29.644 17.4229 29.644Z" stroke="#1464EF" stroke-width="4"/>
<path d="M41.1569 19.85C46.0861 19.85 50.0819 15.8541 50.0819 10.925C50.0819 5.99586 46.0861 2 41.1569 2C36.2278 2 32.2319 5.99586 32.2319 10.925C32.2319 15.8541 36.2278 19.85 41.1569 19.85Z" stroke="#1464EF" stroke-width="4"/>
<path d="M2.1319 55C2.1319 55 0.689896 36.142 18.6789 36.723C18.6789 36.723 33.6438 36.717 32.6878 55" stroke="#1464EF" stroke-width="4" stroke-linecap="round"/>
<path d="M29.0023 32.1754C29.0023 32.1754 35.5505 24.5234 44.1867 27.7615C45.5642 28.2066 46.8783 28.828 48.0964 29.6102C49.1515 30.3829 50.1387 31.2441 51.0474 32.1846C51.0654 32.2019 55.1092 35.7436 53.8045 43.4184" stroke="#1464EF" stroke-width="4" stroke-linecap="round"/>
</svg>
