<svg width="49" height="59" viewBox="0 0 49 59" fill="none" xmlns="http://www.w3.org/2000/svg">
<path d="M24.447 31.806C27.5917 31.806 30.6658 30.8735 33.2806 29.1264C35.8953 27.3792 37.9333 24.896 39.1367 21.9907C40.3401 19.0853 40.655 15.8884 40.0415 12.8041C39.428 9.71975 37.9137 6.88665 35.69 4.66299C33.4663 2.43934 30.6332 0.925008 27.5489 0.311503C24.4646 -0.302002 21.2677 0.01287 18.3623 1.2163C15.457 2.41974 12.9738 4.45768 11.2266 7.07242C9.47952 9.68716 8.547 12.7613 8.547 15.906C8.55255 20.1212 10.2295 24.1622 13.2101 27.1429C16.1908 30.1235 20.2318 31.8004 24.447 31.806ZM24.447 3.51199C26.8975 3.51199 29.293 4.23865 31.3305 5.60008C33.368 6.96151 34.9561 8.89656 35.8939 11.1605C36.8316 13.4245 37.077 15.9157 36.5989 18.3192C36.1209 20.7226 34.9408 22.9303 33.2081 24.663C31.4753 26.3958 29.2676 27.5758 26.8642 28.0539C24.4607 28.532 21.9695 28.2866 19.7056 27.3489C17.4416 26.4111 15.5065 24.823 14.1451 22.7855C12.7837 20.748 12.057 18.3525 12.057 15.902C12.0612 12.6173 13.368 9.46827 15.6906 7.14561C18.0133 4.82295 21.1623 3.51622 24.447 3.51199Z" fill="#B742C7"/>
<path d="M47.111 41.086C46.3261 39.5698 45.1363 38.3009 43.6738 37.4202C42.2112 36.5395 40.5332 36.0815 38.826 36.097H10.065C8.34629 36.0979 6.66088 36.5712 5.19288 37.465C3.72489 38.3589 2.53077 39.6389 1.74095 41.1654C0.951132 42.6919 0.595995 44.4061 0.714338 46.1207C0.832681 47.8353 1.41996 49.4845 2.412 50.888C4.47232 53.9445 7.64838 56.0719 11.259 56.814C19.9607 58.5931 28.9323 58.5931 37.634 56.814C41.2478 56.0693 44.4259 53.9384 46.487 50.878L46.581 50.741C47.5536 49.3381 48.1181 47.693 48.2118 45.9886C48.3056 44.2841 47.9249 42.5871 47.112 41.086H47.111ZM43.675 48.766L43.581 48.903C42.0328 51.2062 39.643 52.8104 36.925 53.371C28.6887 55.0471 20.1993 55.0471 11.963 53.371C9.19504 52.7888 6.76986 51.1351 5.21699 48.771C4.61853 47.8895 4.27143 46.8617 4.21297 45.7979C4.1545 44.7341 4.38688 43.6744 4.88515 42.7326C5.38341 41.7909 6.12875 41.0027 7.04115 40.4525C7.95355 39.9024 8.99856 39.6111 10.064 39.61H38.827C39.8923 39.61 40.9375 39.9004 41.8501 40.4499C42.7628 40.9994 43.5084 41.7873 44.0068 42.7288C44.5053 43.6704 44.7377 44.7299 44.679 45.7937C44.6204 46.8574 44.2729 47.885 43.674 48.766H43.675Z" fill="#B742C7"/>
</svg>
