<svg width="92" height="90" viewBox="0 0 92 90" fill="none" xmlns="http://www.w3.org/2000/svg">
<path d="M67.5292 29.0364C67.5602 28.9937 67.5887 28.9493 67.6146 28.9034C67.6394 28.8533 67.6606 28.8016 67.6779 28.7485C67.6928 28.7072 67.7109 28.6712 67.7265 28.6307C67.7546 28.5339 67.7742 28.435 67.785 28.3348L68.7134 17.683C68.7362 17.4824 68.7185 17.2792 68.6615 17.0854C68.6045 16.8917 68.5093 16.7113 68.3815 16.5549C68.2536 16.3986 68.0958 16.2694 67.9173 16.175C67.7387 16.0806 67.5431 16.0229 67.3419 16.0053C67.1407 15.9877 66.938 16.0105 66.7458 16.0725C66.5536 16.1345 66.3757 16.2343 66.2227 16.3661C66.0697 16.4979 65.9446 16.659 65.8548 16.8399C65.765 17.0208 65.7123 17.2178 65.6999 17.4194L65.059 24.7453C60.4784 20.4803 54.5999 17.8746 48.3637 17.3449C42.1274 16.8152 35.8936 18.3922 30.6594 21.8235C25.4251 25.2549 21.4928 30.3424 19.4912 36.2724C17.4897 42.2025 17.5346 48.6324 19.6187 54.5339C19.6852 54.7215 19.7879 54.8941 19.921 55.0419C20.0541 55.1898 20.215 55.3099 20.3946 55.3956C20.5742 55.4812 20.7688 55.5307 20.9675 55.5411C21.1662 55.5515 21.365 55.5226 21.5525 55.4562C21.74 55.3898 21.9126 55.2871 22.0605 55.154C22.2083 55.0209 22.3285 54.8599 22.4141 54.6804C22.4998 54.5008 22.5492 54.3061 22.5596 54.1075C22.57 53.9088 22.5412 53.71 22.4748 53.5225C20.6412 48.3325 20.5753 42.6819 22.2872 37.4505C23.9991 32.2192 27.3928 27.7007 31.9398 24.5986C36.4868 21.4966 41.9319 19.9852 47.4273 20.2996C52.9226 20.6141 58.1598 22.7368 62.3232 26.3373L55.7567 25.7628C55.3629 25.7385 54.9751 25.869 54.6762 26.1265C54.3772 26.3839 54.1907 26.748 54.1563 27.141C54.1219 27.5341 54.2424 27.925 54.4921 28.2305C54.7418 28.536 55.101 28.7318 55.493 28.7763L66.1466 29.7083C66.246 29.7179 66.3462 29.7162 66.4452 29.7032C66.4874 29.6978 66.529 29.6886 66.5696 29.6758C66.6248 29.667 66.6793 29.6551 66.7332 29.6404C66.7837 29.6228 66.8303 29.6006 66.879 29.5793C66.9222 29.564 66.9642 29.5453 67.0046 29.5236C67.1789 29.4267 67.3331 29.2973 67.4589 29.1424C67.4861 29.1073 67.5109 29.0703 67.5331 29.0318L67.5292 29.0364Z" fill="#2CBB31" stroke="#2CBB31"/>
<path d="M63.9846 66.6471C68.3309 62.9747 71.4605 58.0699 72.9598 52.581C74.4591 47.092 74.2575 41.2773 72.3817 35.9053C72.3156 35.718 72.2133 35.5455 72.0806 35.3978C71.9479 35.25 71.7874 35.1298 71.6082 35.0441C71.4291 34.9583 71.2348 34.9087 71.0364 34.8981C70.8381 34.8874 70.6396 34.9159 70.4523 34.982C70.265 35.0481 70.0925 35.1504 69.9447 35.2831C69.797 35.4158 69.6768 35.5763 69.591 35.7555C69.5053 35.9346 69.4557 36.1289 69.445 36.3273C69.4344 36.5256 69.4629 36.7241 69.529 36.9114C71.2021 41.7037 71.3815 46.891 70.0434 51.7875C68.7053 56.6839 65.9127 61.059 62.0348 64.3343C57.4889 68.1374 51.7394 70.201 45.8127 70.1566C39.8859 70.1123 34.1679 67.9629 29.6795 64.0923L36.2446 64.6666C36.6412 64.6959 37.0334 64.5679 37.3362 64.3102C37.6391 64.0526 37.8284 63.6861 37.8632 63.29C37.8979 62.8938 37.7754 62.5 37.5219 62.1935C37.2685 61.8871 36.9047 61.6927 36.5091 61.6525L25.8561 60.7212C25.7568 60.7106 25.6565 60.7123 25.5575 60.7263C25.5153 60.7318 25.4737 60.741 25.4331 60.7537C25.3779 60.7626 25.3234 60.7744 25.2695 60.7891C25.2198 60.8067 25.1711 60.8271 25.1237 60.8502C25.0805 60.8656 25.0385 60.8842 24.9981 60.9059C24.8238 61.0028 24.6696 61.1322 24.5438 61.2871C24.5159 61.3223 24.4925 61.3628 24.4672 61.4011C24.4362 61.4437 24.4076 61.4882 24.3817 61.5341C24.3569 61.5842 24.3358 61.6359 24.3185 61.689C24.3035 61.7303 24.2854 61.7663 24.2698 61.8068C24.2424 61.9027 24.2234 62.0008 24.2129 62.1L23.2795 72.7534C23.2567 72.9541 23.2744 73.1573 23.3314 73.3511C23.3884 73.5448 23.4836 73.7252 23.6114 73.8815C23.7392 74.0379 23.8971 74.1671 24.0756 74.2615C24.2541 74.3559 24.4498 74.4136 24.651 74.4312C24.8522 74.4488 25.0548 74.4259 25.247 74.364C25.4393 74.302 25.6171 74.2022 25.7702 74.0704C25.9232 73.9386 26.0483 73.7775 26.1381 73.5966C26.2279 73.4157 26.2805 73.2187 26.293 73.0171L26.9339 65.6912C31.9343 70.3338 38.4567 72.9927 45.2778 73.169C52.0989 73.3454 58.75 71.0272 63.9837 66.6491L63.9846 66.6471Z" fill="#2CBB31" stroke="#2CBB31"/>
<path d="M44.011 46.854H54.807" stroke="#2CBB31" stroke-width="5" stroke-linecap="round"/>
<path d="M44.011 36.058V46.854" stroke="#2CBB31" stroke-width="5" stroke-linecap="round"/>
</svg>
