<svg width="66" height="59" viewBox="0 0 66 59" fill="none" xmlns="http://www.w3.org/2000/svg">
<path d="M36.374 20.771L23.86 33.285C22.7244 34.4204 22.086 35.9602 22.085 37.566V39.008C22.0855 39.4754 22.2714 39.9235 22.6019 40.254C22.9325 40.5845 23.3806 40.7705 23.848 40.771H25.304C26.9041 40.7666 28.4374 40.1292 29.569 38.998L42.649 25.918C43.4063 25.1569 43.8306 24.1264 43.8285 23.0527C43.8265 21.979 43.3983 20.9501 42.638 20.192C41.8705 19.4572 40.8483 19.0479 39.7858 19.05C38.7232 19.052 37.7027 19.4652 36.938 20.203L36.375 20.766L36.374 20.771ZM28.592 38.024C27.7193 38.897 26.5364 39.3888 25.302 39.392H23.848C23.7466 39.3915 23.6495 39.3509 23.5778 39.2792C23.506 39.2075 23.4655 39.1104 23.465 39.009V37.565C23.466 36.3272 23.9579 35.1404 24.833 34.265L36.863 22.232L40.624 25.993L28.592 38.024ZM41.676 21.18C42.1729 21.6797 42.4518 22.3558 42.4518 23.0605C42.4518 23.7652 42.1729 24.4413 41.676 24.941L41.599 25.018L37.839 21.258L37.905 21.192C38.4111 20.7049 39.0856 20.4317 39.7881 20.4295C40.4905 20.4273 41.1668 20.6961 41.676 21.18Z" fill="#EF9631" stroke="#EF9631" stroke-width="2"/>
<path d="M41.473 2H24.44C12.2897 2 2.44 11.8497 2.44 24V35C2.44 47.1503 12.2897 57 24.44 57H41.473C53.6233 57 63.473 47.1503 63.473 35V24C63.473 11.8497 53.6233 2 41.473 2Z" stroke="#EF9631" stroke-width="4"/>
</svg>
