<svg width="66" height="68" viewBox="0 0 66 68" fill="none" xmlns="http://www.w3.org/2000/svg">
<path d="M30.7527 61.8752L35.0639 56.5407H38.9981C41.9699 56.5407 44.8506 55.9595 47.5603 54.8134C50.1796 53.7056 52.5328 52.1187 54.5545 50.097C56.5763 48.0753 58.1631 45.7221 59.271 43.1028C60.4171 40.3931 60.9982 37.5123 60.9982 34.5406V26.4361C60.9982 23.4643 60.4171 20.5836 59.271 17.8738C58.1631 15.2546 56.5763 12.9014 54.5545 10.8796C52.5328 8.8579 50.1796 7.27106 47.5603 6.1632C44.8506 5.0171 41.9699 4.43597 38.9981 4.43597H26.0021C23.0303 4.43597 20.1496 5.0171 17.4399 6.1632C14.8206 7.27106 12.4674 8.8579 10.4457 10.8796C8.42392 12.9014 6.83709 15.2546 5.72922 17.8738C4.58312 20.5836 4.002 23.4643 4.002 26.4361V34.5406C4.002 46.1928 13.1045 55.8404 24.7248 56.5043L26.4939 56.6054L30.7527 61.8752ZM30.7531 67.4468C30.2753 67.4468 29.7974 67.207 29.531 66.7273L24.4966 60.4978C10.8383 59.7175 0.0019989 48.3944 0.0019989 34.5406V26.4361C0.0019989 12.0766 11.6426 0.435974 26.0021 0.435974H38.9981C53.3576 0.435974 64.9982 12.0766 64.9982 26.4361V34.5406C64.9982 48.9001 53.3576 60.5407 38.9981 60.5407H36.9742L31.9745 66.7273C31.7085 67.207 31.2309 67.4468 30.7531 67.4468Z" fill="#9D36BC"/>
<path d="M45.134 36.254H19.165C18.8548 36.254 18.5574 36.1308 18.338 35.9114C18.1187 35.6921 17.9955 35.3947 17.9955 35.0845C17.9955 34.7743 18.1187 34.4769 18.338 34.2575C18.5574 34.0382 18.8548 33.915 19.165 33.915H45.134C45.4442 33.915 45.7416 34.0382 45.961 34.2575C46.1803 34.4769 46.3035 34.7743 46.3035 35.0845C46.3035 35.3947 46.1803 35.6921 45.961 35.9114C45.7416 36.1308 45.4442 36.254 45.134 36.254Z" fill="#9D36BC" stroke="#9D36BC" stroke-width="2"/>
<path d="M30.095 27.036H18.817C18.363 27.036 17.995 26.512 17.995 25.866C17.995 25.22 18.363 24.696 18.817 24.696H30.095C30.549 24.696 30.917 25.22 30.917 25.866C30.917 26.512 30.546 27.036 30.095 27.036Z" fill="#9D36BC" stroke="#9D36BC" stroke-width="2"/>
</svg>
