<svg width="53" height="70" viewBox="0 0 53 70" fill="none" xmlns="http://www.w3.org/2000/svg">
<path d="M39 10H14C7.37258 10 2 15.3726 2 22V56C2 62.6274 7.37258 68 14 68H39C45.6274 68 51 62.6274 51 56V22C51 15.3726 45.6274 10 39 10Z" stroke="#2671CF" stroke-width="4"/>
<path d="M27 19C33.0751 19 38 14.7467 38 9.5C38 4.25329 33.0751 0 27 0C20.9249 0 16 4.25329 16 9.5C16 14.7467 20.9249 19 27 19Z" fill="white"/>
<path d="M27 17.5C32.2467 17.5 36.5 13.9183 36.5 9.5C36.5 5.08172 32.2467 1.5 27 1.5C21.7533 1.5 17.5 5.08172 17.5 9.5C17.5 13.9183 21.7533 17.5 27 17.5Z" stroke="#2671CF" stroke-width="3"/>
<path d="M17 32H11V60H17V32Z" fill="#2671CF"/>
<path d="M16.5 32.5H11.5V59.5H16.5V32.5Z" stroke="#2671CF"/>
<path d="M29 53H23V60H29V53Z" fill="#2671CF"/>
<path d="M28.5 53.5H23.5V59.5H28.5V53.5Z" stroke="#2671CF"/>
<path d="M42 44H36V60H42V44Z" fill="#2671CF"/>
<path d="M41.5 44.5H36.5V59.5H41.5V44.5Z" stroke="#2671CF"/>
</svg>
