<svg width="18" height="20" viewBox="0 0 18 20" fill="none" xmlns="http://www.w3.org/2000/svg">
<path d="M15.8987 12.4842C15.3092 11.7684 14.9935 10.8632 14.9935 9.93684V7.81053C14.9935 4.73684 12.6777 2.18947 9.70924 1.81053V0.757895C9.70924 0.336842 9.3724 0 8.95135 0C8.53029 0 8.19345 0.336842 8.19345 0.757895V1.81053C5.22503 2.18947 2.90924 4.73684 2.90924 7.81053V9.93684C2.90924 10.8632 2.59345 11.7684 2.00398 12.4842L1.07766 13.6211C0.593451 14.2105 0.488188 15.0316 0.82503 15.7263C1.16187 16.4211 1.83556 16.8632 2.6145 16.8632H5.51977C5.68819 18.6316 7.16187 20 8.9724 20C10.7829 20 12.2566 18.6105 12.425 16.8632H15.3303C16.1092 16.8632 16.7829 16.4211 17.1198 15.7263C17.4566 15.0316 17.3513 14.2316 16.8671 13.6211L15.8987 12.4842ZM8.95135 18.4842C7.98292 18.4842 7.18293 17.7684 7.03556 16.8421H10.8671C10.7198 17.7684 9.91977 18.4842 8.95135 18.4842ZM15.7303 15.0737C15.6882 15.1579 15.5829 15.3474 15.3092 15.3474H2.59345C2.31977 15.3474 2.2145 15.1579 2.1724 15.0737C2.13029 14.9895 2.06714 14.7789 2.23556 14.5684L3.16187 13.4316C3.96187 12.4421 4.40398 11.2 4.40398 9.91579V7.81053C4.42503 5.30526 6.44608 3.26316 8.95135 3.26316C11.4566 3.26316 13.4777 5.30526 13.4777 7.78947V9.91579C13.4777 11.2 13.9198 12.4421 14.7198 13.4316L15.6461 14.5684C15.8356 14.7789 15.7724 14.9895 15.7303 15.0737Z" fill="#CDB516"/>
<path d="M1.47799 5.72665C1.9622 3.97928 3.05693 2.46349 4.55167 1.41086C4.88851 1.17928 4.97272 0.695069 4.74114 0.358226C4.50956 0.0213843 4.02535 -0.0628262 3.68851 0.168753C1.92009 1.41086 0.614828 3.24244 0.0253544 5.32665C-0.0799088 5.72665 0.15167 6.1477 0.55167 6.25296C0.614828 6.27402 0.677986 6.27402 0.762197 6.27402C1.07799 6.29507 1.39378 6.06349 1.47799 5.72665Z" fill="#CDB516"/>
<path d="M17.8777 5.32665C17.2882 3.24244 15.983 1.41086 14.2145 0.168753C13.8777 -0.0628261 13.3935 0.0213843 13.1619 0.358226C12.9303 0.695069 13.0145 1.17928 13.3514 1.41086C14.8461 2.44244 15.9409 3.97928 16.4251 5.72665C16.5093 6.06349 16.8251 6.27402 17.1619 6.27402C17.2251 6.27402 17.2882 6.27402 17.3724 6.25296C17.7514 6.1477 17.983 5.72665 17.8777 5.32665Z" fill="#CDB516"/>
</svg>
