<svg width="24" height="22" viewBox="0 0 24 22" fill="none" xmlns="http://www.w3.org/2000/svg">
<path d="M5.50645 14.7422C6.54661 16.2385 7.57418 17.7175 8.6026 19.1956C8.6175 19.2011 8.6334 19.2038 8.64947 19.2036C8.69635 19.1427 8.74657 19.0747 8.79529 19.0044C9.72762 17.6538 10.6628 16.3053 11.5881 14.9496C11.7043 14.779 11.8042 14.7452 11.9977 14.8189C13.2892 15.3101 14.5881 15.7808 15.8786 16.2749C16.9304 16.6775 17.4119 17.601 17.1864 18.7087C17.0565 19.3463 16.9413 19.9871 16.8242 20.6273C16.7304 21.1284 16.3952 21.4242 15.8866 21.4242H1.37492C0.8593 21.4242 0.526979 21.1463 0.429049 20.6409C0.296288 19.9533 0.165374 19.2659 0.0366329 18.5784C-0.145681 17.6039 0.364762 16.6645 1.29473 16.3082C2.66014 15.7856 4.03228 15.2806 5.40155 14.7683C5.43152 14.7593 5.46282 14.7546 5.50652 14.7424L5.50645 14.7422Z" fill="#B4A31B"/>
<path d="M18.2515 8.89131C19.1338 8.02044 19.5088 6.9426 19.5875 5.72587C19.1933 5.78346 18.8244 5.86649 18.4531 5.88625C16.5489 5.97481 15.0153 5.28105 13.9436 3.67371C13.6098 3.17347 13.2363 2.71879 12.7618 2.34811C12.4725 2.1221 12.4566 2.00591 12.6949 1.73871C13.8485 0.437415 15.3007 -0.136324 17.0252 0.0272218C18.5614 0.172536 19.7909 0.883224 20.6581 2.16845C22.0279 4.19769 21.455 6.96168 19.3818 8.34943C19.0396 8.57811 18.6622 8.7544 18.3013 8.95462L18.2515 8.89131Z" fill="#B4A31B"/>
<path d="M4.85218 10.9033C4.65195 10.2382 4.42427 9.57958 4.25787 8.90543C4.01897 7.97258 4.01562 6.99507 4.24799 6.06056C4.68343 4.33604 5.81317 3.33153 7.53481 2.99252C8.52256 2.79849 9.50778 2.85474 10.457 3.21803C12.0415 3.82374 12.836 5.03499 13.0529 6.66861C13.247 8.12831 12.8654 9.4924 12.323 10.8247H12.3232C12.2973 10.8672 12.2678 10.9077 12.2351 10.9455C12.3788 10.1503 12.3291 9.33216 12.0903 8.56008C11.9249 8.01111 11.6825 7.48194 11.4237 6.96627C11.2338 6.58892 11.0547 6.58423 10.744 6.87252C10.2663 7.31786 9.73014 7.65952 9.08376 7.80485C8.31317 7.97963 7.63816 7.73119 7.00716 7.3197C6.80894 7.18242 6.62094 7.03091 6.44465 6.86635C6.13426 6.59162 5.97587 6.60569 5.75506 6.9601C5.30823 7.67176 5.03282 8.47719 4.95015 9.31326C4.90043 9.82889 4.94077 10.3529 4.94077 10.8732L4.85218 10.9033Z" fill="#B4A31B"/>
<path d="M19.9333 16.8911H19.8606C19.563 16.8911 19.2156 16.9825 18.9817 16.8596C18.7702 16.7484 18.6835 16.4015 18.5392 16.1601C17.996 15.2498 17.1746 14.7159 16.1889 14.3789C15.3676 14.0976 14.561 13.7789 13.7485 13.476C13.4766 13.3742 13.4293 13.2651 13.5399 12.995C13.6506 12.725 13.7616 12.4606 13.8741 12.194C13.9866 11.9273 14.0499 11.9127 14.2697 12.1109C15.2161 12.9607 16.3088 13.2308 17.5169 12.8399C18.684 12.462 19.4111 11.6375 19.6979 10.4393C19.7917 10.0479 19.7893 10.0451 20.1747 10.1843V10.1847C20.5097 10.3057 20.8383 10.4438 21.1591 10.5985C22.6634 11.3238 23.3229 11.86 23.5217 12.1585C24.0373 12.9353 24.011 13.7814 23.9905 14.3814C23.9722 14.9369 23.9543 15.4872 23.5686 15.8566C23.3558 16.0595 23.0347 16.2045 22.6582 16.3723C22.4702 16.46 22.2763 16.5347 22.0779 16.5958C21.8618 16.6579 21.6415 16.7049 21.4188 16.7364C21.2782 16.7585 21.3293 16.7458 20.7912 16.8147C20.6716 16.8301 20.5596 16.8447 20.3987 16.8616C20.2442 16.8797 20.0889 16.8896 19.9334 16.8911L19.9333 16.8911Z" fill="#B4A31B"/>
</svg>
