<svg width="24" height="24" viewBox="0 0 24 24" fill="none" xmlns="http://www.w3.org/2000/svg">
<path fill-rule="evenodd" clip-rule="evenodd" d="M13.8462 3.19287C13.8462 3.59548 14.1074 3.95254 14.4923 4.07349C14.9613 4.2204 15.4127 4.40852 15.8409 4.63288C16.1982 4.82038 16.6358 4.753 16.9218 4.46763L18.5271 2.86231C18.8881 2.50152 19.4725 2.50152 19.8324 2.86148L21.1377 4.16762C21.4985 4.52758 21.4985 5.11191 21.1377 5.47291L19.5324 7.07823C19.247 7.3634 19.1796 7.80188 19.3671 8.15914C19.5915 8.58833 19.7796 9.03876 19.9265 9.50768C20.0475 9.89258 20.4045 10.1538 20.8071 10.1538H23.0769C23.5865 10.1538 24 10.5674 24 11.0769V12.9231C24 13.4326 23.5865 13.8462 23.0769 13.8462H20.8071C20.4045 13.8462 20.0475 14.1074 19.9265 14.4923C19.7796 14.9613 19.5915 15.4127 19.3671 15.8409C19.1796 16.1982 19.247 16.6358 19.5324 16.9218L21.1377 18.5271C21.4985 18.8881 21.4985 19.4725 21.1385 19.8324L19.8324 21.1377C19.4724 21.4985 18.8881 21.4985 18.5271 21.1377L16.9218 19.5324C16.6366 19.247 16.1981 19.1796 15.8409 19.3671C15.4117 19.5915 14.9612 19.7796 14.4923 19.9265C14.1074 20.0475 13.8462 20.4045 13.8462 20.8071V23.0769C13.8462 23.5865 13.4326 24 12.9231 24H11.0769C10.5674 24 10.1538 23.5865 10.1538 23.0769V20.8071C10.1538 20.4045 9.89256 20.0475 9.50766 19.9265C9.03871 19.7796 8.58727 19.5915 8.15912 19.3671C7.80184 19.1796 7.36421 19.247 7.07821 19.5324L5.47289 21.1377C5.1119 21.4985 4.52755 21.4985 4.1676 21.1385L2.86231 19.8324C2.50152 19.4724 2.50152 18.8881 2.86231 18.5271L4.46763 16.9218C4.753 16.6366 4.82038 16.1981 4.63288 15.8409C4.40849 15.4117 4.22037 14.9612 4.07349 14.4923C3.95254 14.1074 3.59546 13.8462 3.19287 13.8462H0.923083C0.41353 13.8462 0 13.4326 0 12.9231V11.0769C0 10.5674 0.41353 10.1538 0.923083 10.1538H3.19287C3.59548 10.1538 3.95254 9.89256 4.07349 9.50766C4.2204 9.03871 4.40852 8.58727 4.63288 8.15912C4.82038 7.80184 4.753 7.36421 4.46763 7.07821L2.86231 5.47289C2.50152 5.1119 2.50152 4.52755 2.86148 4.1676L4.16762 2.86231C4.52758 2.50152 5.11191 2.50152 5.47291 2.86231L7.07823 4.46763C7.3634 4.753 7.80188 4.82038 8.15914 4.63288C8.58833 4.40849 9.03876 4.22037 9.50768 4.07349C9.89258 3.95254 10.1538 3.59546 10.1538 3.19287V0.923083C10.1538 0.413531 10.5674 0 11.0769 0H12.9231C13.4326 0 13.8462 0.413531 13.8462 0.923083V3.19287ZM12 5.5385C8.43417 5.5385 5.53843 8.43424 5.53843 12.0001C5.53843 15.5659 8.43417 18.4617 12 18.4617C15.5659 18.4617 18.4616 15.5659 18.4616 12.0001C18.4616 8.43424 15.5659 5.5385 12 5.5385ZM12 7.38467C14.5478 7.38467 16.6154 9.45232 16.6154 12.0001C16.6154 14.5478 14.5478 16.6155 12 16.6155C9.45225 16.6155 7.38459 14.5478 7.38459 12.0001C7.38459 9.45232 9.45225 7.38467 12 7.38467Z" fill="#CDB516"/>
</svg>
