<svg width="24" height="22" viewBox="0 0 24 22" fill="none" xmlns="http://www.w3.org/2000/svg">
<path d="M18.3576 8.25642H20.134C20.5387 8.25642 20.8664 7.92835 20.8664 7.52425V6.47085C20.8664 6.06638 20.5387 5.73811 20.134 5.73811H18.3576V3.96223C18.3576 3.55758 18.0293 3.22949 17.6248 3.22949H16.5716C16.1672 3.22949 15.8393 3.55756 15.8393 3.96223L15.8395 5.73811H14.063C13.6585 5.73811 13.3301 6.06637 13.3301 6.47085V7.52425C13.3301 7.92835 13.6587 8.25642 14.063 8.25642H15.8395V10.0329C15.8395 10.4375 16.1675 10.7658 16.5718 10.7658H17.625C18.0295 10.7658 18.3578 10.4375 18.3578 10.0329L18.3576 8.25642Z" fill="#CDB516"/>
<path d="M22.0026 2.00101C20.7124 0.710618 18.9969 0 17.1719 0C15.3472 0 13.632 0.710475 12.3417 2.00101L12.0011 2.3402L11.6619 2.00101C10.3715 0.710618 8.65588 0 6.8312 0C5.00651 0 3.29131 0.710475 2.00101 2.00101C0.710618 3.29121 0 5.00699 0 6.83167C0 8.65636 0.710475 10.3716 2.00049 11.6619L12.0013 21.6626L22.002 11.6619C24.6659 8.99823 24.6659 4.66488 22.0028 2.00101H22.0026ZM21.3038 10.964L12.0019 20.2659L2.69992 10.964C1.59648 9.85958 0.988935 8.3923 0.988935 6.83153C0.988935 5.27076 1.59686 3.80329 2.7003 2.69909C3.80373 1.59566 5.27139 0.987734 6.83216 0.987734C8.39312 0.987734 9.86041 1.59566 10.9646 2.69909L11.3424 3.07686C9.24621 5.79504 9.48359 9.62899 11.9273 12.0726L12.1066 12.1924C12.1648 12.2161 12.2271 12.2285 12.2907 12.2285C12.5617 12.2285 12.7827 12.0077 12.7827 11.7364C12.7827 11.6752 12.7711 11.6158 12.7494 11.5598L12.6257 11.374C10.3947 9.14356 10.3574 5.47558 12.5389 3.20197L13.0409 2.69958C14.1443 1.59615 15.6122 0.988219 17.1729 0.988219C18.7339 0.988219 20.201 1.59615 21.3048 2.69958C23.5822 4.97804 23.5822 8.68533 21.3039 10.9642L21.3038 10.964Z" fill="#CDB516"/>
</svg>
