<svg width="20" height="24" viewBox="0 0 20 24" fill="none" xmlns="http://www.w3.org/2000/svg">
<path d="M5.33332 0C5.05002 0.00409231 4.87498 0.191406 4.80841 0.433412L4.02512 4.60848C1.60491 6.17788 0 8.90594 0 12C0 15.0934 1.60568 17.8138 4.02493 19.3833L4.80822 23.5584C4.85268 23.8134 5.0744 23.9998 5.33331 24H12.2667C12.5258 23.9998 12.7472 23.8134 12.7916 23.5584L13.5749 19.3833C15.4918 18.1397 16.8991 16.1694 17.3999 13.8666H18.6666C18.9613 13.8666 19.1999 13.6278 19.2001 13.3333V10.6667C19.1999 10.3722 18.9613 10.1334 18.6666 10.1334H17.3999C16.9004 7.82665 15.4947 5.8534 13.5749 4.60858L12.7916 0.433507C12.7455 0.191692 12.5126 -0.000276154 12.2667 9.52772e-05L5.33332 0ZM5.77491 1.06658H11.8249H11C9.90942 0.581432 10.0687 1.06658 8.79993 1.06658C7.53116 1.06658 6.59039 0.581446 5.5 1.06658H5.77491ZM8.79983 4.26655C12.9881 4.26655 16.3851 7.57962 16.5251 11.7333H13.4085L12.2169 9.10824C12.1306 8.92223 11.9303 8.79649 11.7253 8.79983C11.5203 8.80337 11.3218 8.936 11.2418 9.1248L9.10007 14.2582L6.90011 8.08289C6.77269 7.85465 6.59672 7.73783 6.41687 7.73281C6.23681 7.72779 6.05303 7.83493 5.90848 8.0494L4.44176 11.4661H1.0835C1.35638 7.43854 4.70162 4.26655 8.79983 4.26655ZM6.35825 9.72468L8.56659 15.908C8.6397 16.1402 8.85436 16.2611 9.0666 16.2663C9.27884 16.2717 9.47527 16.1283 9.55822 15.933L11.7582 10.6582L12.5831 12.4831C12.6659 12.6692 12.8629 12.7982 13.0664 12.7997H16.4914C16.0923 16.6999 12.8069 19.7331 8.79998 19.7331C4.70176 19.7331 1.35612 16.561 1.08326 12.5331H4.8C5.00815 12.5333 5.21035 12.3997 5.29162 12.2081L6.35825 9.72468ZM17.5669 11.1998H18.1335V12.7999H17.5669C17.5911 12.5343 17.6002 12.2718 17.6002 11.9998C17.6002 11.7309 17.5905 11.4628 17.5669 11.1998ZM5.77496 22.9335C5.77496 22.9335 10.5568 22.9335 11.825 22.9335H5.77496Z" fill="#CDB516"/>
</svg>
