<svg width="22" height="24" viewBox="0 0 22 24" fill="none" xmlns="http://www.w3.org/2000/svg">
<path d="M17.1778 13.722C17.5782 14.3837 17.815 15.1908 17.8625 16.0061C18.6342 16.1813 19.2124 16.8714 19.2124 17.695C19.2124 18.6507 18.4349 19.4283 17.4791 19.4283C16.5234 19.4283 15.7459 18.6507 15.7459 17.695C15.7459 16.8827 16.3082 16.201 17.0634 16.0141C16.9866 14.9082 16.4892 13.7964 15.6847 13.2829C15.4896 13.2485 15.2913 13.2206 15.0908 13.2021C15.0618 14.499 10.7733 17.6781 10.7733 17.6781C10.7735 17.6779 6.48497 14.499 6.45687 13.2023C6.20111 13.2258 5.94997 13.2639 5.70278 13.3138C5.07798 13.7602 4.57351 14.6313 4.54579 15.6893C4.70018 15.779 4.82518 15.9176 4.90237 16.0861C5.47194 16.3549 5.97489 16.9207 6.36013 17.7263C6.42467 17.8621 6.43286 18.0152 6.3858 18.1549C6.61664 18.7492 6.7487 19.3989 6.7487 19.9445C6.7487 20.709 6.7487 21.432 5.91538 21.6175C5.82498 21.6926 5.71225 21.7337 5.59358 21.7337H5.03687C4.75766 21.7337 4.53073 21.5062 4.53073 21.2274C4.53687 20.9432 4.76398 20.7211 5.03687 20.7211H5.59358C5.65087 20.7211 5.70667 20.7307 5.76024 20.7495C5.79391 20.7397 5.80451 20.7319 5.80451 20.7319C5.86646 20.6219 5.86646 20.1643 5.86646 19.9447C5.86646 19.5008 5.7556 18.9657 5.56121 18.4689C5.46021 18.4116 5.37874 18.3249 5.3287 18.22C4.9909 17.5131 4.53185 17.0565 4.15909 17.0565C3.77758 17.0565 3.29562 17.5501 2.95967 18.2841C2.90479 18.4035 2.80844 18.5012 2.68976 18.559C2.51398 19.0358 2.41744 19.5258 2.41744 19.9441C2.41744 20.1286 2.41744 20.6186 2.48775 20.7333H2.48794C2.48868 20.7333 2.50449 20.743 2.54876 20.7538C2.60661 20.7315 2.66725 20.7201 2.73012 20.7201H3.28798C3.55509 20.7201 3.77702 20.9294 3.79355 21.1967L3.79764 21.2127L3.79448 21.2268C3.79448 21.506 3.56736 21.7331 3.28834 21.7331H2.73048C2.61981 21.7331 2.51285 21.6963 2.42487 21.6288C2.10623 21.5687 1.88192 21.4279 1.73977 21.1995C1.56753 20.9233 1.53572 20.5598 1.53572 19.9437C1.53572 19.4032 1.66053 18.7812 1.88709 18.1867C1.8538 18.0595 1.86496 17.9267 1.9202 17.807C2.15643 17.2909 2.45668 16.8487 2.78848 16.529C2.97096 16.353 3.16683 16.2118 3.372 16.1088C3.44883 15.9285 3.58275 15.781 3.74607 15.6876C3.76188 14.9867 3.95496 14.3217 4.27174 13.7628C1.75761 14.8591 9.02311e-08 17.3654 9.02311e-08 20.2837C-0.000557954 23.8257 2.58741 24.0002 5.97615 24.0002C6.34557 24.0002 6.72467 23.9981 7.11158 23.9981H14.4372C14.8227 23.9981 15.2023 24.0002 15.5721 24.0002C18.9606 24.0002 21.5492 23.8263 21.5492 20.2845C21.5492 17.328 19.7445 14.795 17.1781 13.7221L17.1778 13.722Z" fill="#CDB516"/>
<path d="M10.7737 14.1304C14.0497 14.1304 16.7042 9.20471 16.7042 5.93044C16.7042 2.65498 14.0494 0 10.7737 0C7.49883 0 4.84375 2.65513 4.84375 5.93044C4.84356 9.20533 7.49926 14.1304 10.7737 14.1304ZM7.23097 3.26569C8.11678 5.96192 14.2357 4.74802 14.2357 4.74802C15.9982 4.61353 15.8705 7.03653 15.8685 7.06329C15.4029 9.82723 13.2991 13.2018 10.7738 13.2018C8.15344 13.2018 5.98617 9.56532 5.63379 6.75091C5.91058 4.36178 7.23088 3.26565 7.23088 3.26565L7.23097 3.26569Z" fill="#CDB516"/>
<path d="M18.2796 17.6946C18.2796 18.1363 17.9215 18.4946 17.4795 18.4946C17.0378 18.4946 16.6797 18.1364 16.6797 17.6946C16.6797 17.2528 17.0378 16.8945 17.4795 16.8945C17.9215 16.8945 18.2796 17.2528 18.2796 17.6946Z" fill="#CDB516"/>
</svg>
