<svg width="24" height="24" viewBox="0 0 24 24" fill="none" xmlns="http://www.w3.org/2000/svg">
<path d="M13.4559 19.9243H4.47602V2.23792C4.47602 1.76298 4.32602 1.32283 4.07256 0.960261H16.739C17.4438 0.960261 18.0172 1.53365 18.0172 2.23792V14.0451C18.0172 14.3101 18.2323 14.5251 18.4972 14.5251C18.7622 14.5251 18.9771 14.3099 18.9771 14.0451L18.9773 5.31079V2.23779C18.9776 1.00398 17.9737 0 16.7393 0H2.23814C1.00398 0 0 1.00398 0 2.23779V5.31079C0 5.5758 0.215122 5.79075 0.479959 5.79075H3.5158V20.4038C3.5158 20.6688 3.73092 20.8838 3.99576 20.8838H13.4552C13.7202 20.8838 13.9352 20.6686 13.9352 20.4038C13.9353 20.1388 13.7206 19.9238 13.4554 19.9238L13.4559 19.9243ZM2.23845 0.960346C2.94306 0.960346 3.51645 1.53373 3.51645 2.23801V4.83087L0.960398 4.83121V2.23817C0.960398 1.53368 1.53361 0.960338 2.2384 0.960338L2.23845 0.960346Z" fill="#CDB516"/>
<path d="M15.331 6.34721C15.331 4.09502 13.4985 2.2627 11.2465 2.2627C8.99426 2.2627 7.16211 4.09484 7.16211 6.34721C7.16211 8.59906 8.99426 10.4316 11.2465 10.4316C13.4986 10.4316 15.331 8.5994 15.331 6.34721ZM8.12194 6.34721C8.12194 4.62456 9.5235 3.22266 11.2463 3.22266C12.9693 3.22266 14.3709 4.62422 14.3709 6.34721C14.3709 8.06986 12.9693 9.47159 11.2463 9.47159C9.5235 9.47159 8.12194 8.06986 8.12194 6.34721Z" fill="#CDB516"/>
<path d="M16.3511 12.8481C16.3511 12.5831 16.136 12.3682 15.8711 12.3682H6.62254C6.35752 12.3682 6.14258 12.5833 6.14258 12.8481C6.14258 13.1131 6.3577 13.3281 6.62254 13.3281H15.8711C16.1362 13.3283 16.3511 13.1135 16.3511 12.8481Z" fill="#CDB516"/>
<path d="M7.64207 14.8945C7.37706 14.8945 7.16211 15.1097 7.16211 15.3745C7.16211 15.6395 7.37723 15.8544 7.64207 15.8544H14.8511C15.1161 15.8544 15.3311 15.6393 15.3311 15.3745C15.3311 15.1095 15.1159 14.8945 14.8511 14.8945H7.64207Z" fill="#CDB516"/>
<path d="M13.5593 17.4199H8.93504C8.67003 17.4199 8.45508 17.635 8.45508 17.8999C8.45508 18.1649 8.6702 18.3798 8.93504 18.3798H13.5593C13.8244 18.3798 14.0393 18.1647 14.0393 17.8999C14.0393 17.635 13.8245 17.4199 13.5593 17.4199Z" fill="#CDB516"/>
<path d="M11.4917 6.75824C11.5066 6.74936 11.5206 6.74015 11.5343 6.72961C11.5466 6.72057 11.5581 6.71086 11.5692 6.70081C11.5807 6.69027 11.5914 6.67938 11.602 6.668C11.6125 6.65628 11.6224 6.64456 11.6318 6.63201C11.6408 6.61979 11.6494 6.60706 11.6572 6.59384C11.6651 6.58061 11.6723 6.56772 11.6788 6.55383C11.6859 6.53943 11.6915 6.52503 11.6971 6.50997C11.7024 6.49557 11.7069 6.48117 11.7108 6.46627C11.7146 6.45137 11.7178 6.43647 11.7202 6.42107C11.7229 6.40433 11.7245 6.38776 11.7252 6.37085C11.7257 6.36264 11.7275 6.35494 11.7275 6.34691V4.16453C11.7275 3.89952 11.5124 3.68457 11.2476 3.68457C10.9826 3.68457 10.7676 3.89969 10.7676 4.16453V6.05844L9.54268 6.70648C9.30847 6.83053 9.21891 7.12099 9.34296 7.35521C9.42884 7.51794 9.59541 7.61085 9.76768 7.61085C9.84335 7.61085 9.92002 7.59277 9.99184 7.55493L11.4721 6.77163C11.4793 6.76761 11.4848 6.76225 11.4917 6.75824H11.4917Z" fill="#CDB516"/>
<path d="M18.9243 14.894C16.4136 14.894 14.3711 16.9366 14.3711 19.4471C14.3709 21.9578 16.4138 23.9999 18.9243 23.9999C21.4346 23.9999 23.4774 21.9575 23.4774 19.4467C23.4774 16.936 21.4347 14.8936 18.9243 14.8936V14.894ZM18.9243 23.0403C16.9428 23.0403 15.3309 21.4285 15.3309 19.4473C15.3309 17.4658 16.9427 15.854 18.9243 15.854C20.9058 15.854 22.5176 17.4658 22.5176 19.4473C22.5174 21.4285 20.9056 23.0403 18.9243 23.0403Z" fill="#CDB516"/>
<path d="M21.0581 17.3829C20.8521 17.2166 20.55 17.2483 20.3829 17.4547L18.0455 20.3472L17.4815 19.5619C17.3265 19.3468 17.027 19.2974 16.8113 19.4519C16.5962 19.6068 16.5468 19.9068 16.7013 20.1221L17.6328 21.419C17.6356 21.4229 17.6393 21.4252 17.6422 21.4291C17.6576 21.4495 17.6758 21.4683 17.6949 21.4862C17.7026 21.4934 17.7095 21.5017 17.7175 21.5088C17.719 21.5098 17.7199 21.5111 17.7214 21.5124C17.7463 21.5329 17.7734 21.5491 17.8009 21.5638C17.8086 21.5679 17.8165 21.5705 17.8243 21.5742C17.8486 21.5853 17.8729 21.5943 17.898 21.6008C17.9067 21.6032 17.9152 21.6059 17.9239 21.6075C17.9567 21.6142 17.9897 21.6191 18.0229 21.6191H18.0234H18.0235C18.024 21.6191 18.0247 21.6189 18.0252 21.6189C18.0682 21.6188 18.1101 21.6111 18.1514 21.5995C18.1635 21.5962 18.1747 21.5921 18.1864 21.5874C18.2209 21.5749 18.2534 21.5587 18.2845 21.5382C18.2902 21.5344 18.2973 21.5332 18.303 21.5292C18.3058 21.527 18.308 21.5243 18.3103 21.5227C18.3197 21.5156 18.3276 21.5073 18.3364 21.4994C18.3545 21.4838 18.3718 21.4674 18.3868 21.4497C18.3897 21.4463 18.393 21.4441 18.3959 21.4408L21.1299 18.0579C21.2964 17.8516 21.2643 17.5495 21.058 17.3829L21.0581 17.3829Z" fill="#CDB516"/>
</svg>
