<svg width="24" height="22" viewBox="0 0 24 22" fill="none" xmlns="http://www.w3.org/2000/svg">
<path d="M18.3578 8.2574H20.1343C20.5389 8.2574 20.8666 7.92933 20.8666 7.52522V6.47183C20.8666 6.06736 20.5389 5.73909 20.1343 5.73909H18.3578V3.96321C18.3578 3.55855 18.0296 3.23047 17.6251 3.23047H16.5719C16.1674 3.23047 15.8395 3.55854 15.8395 3.96321L15.8397 5.73909H14.0633C13.6588 5.73909 13.3303 6.06734 13.3303 6.47183V7.52522C13.3303 7.92932 13.6589 8.2574 14.0633 8.2574H15.8397V10.0338C15.8397 10.4385 16.1678 10.7668 16.5721 10.7668H17.6253C18.0297 10.7668 18.358 10.4385 18.358 10.0338L18.3578 8.2574Z" fill="#0B3F8B"/>
<path d="M22.0026 2.00101C20.7124 0.710618 18.9969 0 17.1719 0C15.3472 0 13.632 0.710475 12.3417 2.00101L12.0011 2.3402L11.6619 2.00101C10.3715 0.710618 8.65588 0 6.8312 0C5.00651 0 3.29131 0.710475 2.00101 2.00101C0.710618 3.29121 0 5.00699 0 6.83167C0 8.65636 0.710475 10.3716 2.00049 11.6619L12.0013 21.6626L22.002 11.6619C24.6659 8.99823 24.6659 4.66488 22.0028 2.00101H22.0026ZM21.3038 10.964L12.0019 20.2659L2.69992 10.964C1.59648 9.85958 0.988935 8.3923 0.988935 6.83153C0.988935 5.27076 1.59686 3.80329 2.7003 2.69909C3.80373 1.59566 5.27139 0.987734 6.83216 0.987734C8.39312 0.987734 9.86041 1.59566 10.9646 2.69909L11.3424 3.07686C9.24621 5.79504 9.48359 9.62899 11.9273 12.0726L12.1066 12.1924C12.1648 12.2161 12.2271 12.2285 12.2907 12.2285C12.5617 12.2285 12.7827 12.0077 12.7827 11.7364C12.7827 11.6752 12.7711 11.6158 12.7494 11.5598L12.6257 11.374C10.3947 9.14356 10.3574 5.47558 12.5389 3.20197L13.0409 2.69958C14.1443 1.59615 15.6122 0.988219 17.1729 0.988219C18.7339 0.988219 20.201 1.59615 21.3048 2.69958C23.5822 4.97804 23.5822 8.68533 21.3039 10.9642L21.3038 10.964Z" fill="#0B3F8B"/>
</svg>
