<svg width="18" height="20" viewBox="0 0 18 20" fill="none" xmlns="http://www.w3.org/2000/svg">
<path d="M15.8991 12.4842C15.3096 11.7684 14.9938 10.8632 14.9938 9.93684V7.81053C14.9938 4.73684 12.678 2.18947 9.70961 1.81053V0.757895C9.70961 0.336842 9.37276 0 8.95171 0C8.53066 0 8.19382 0.336842 8.19382 0.757895V1.81053C5.2254 2.18947 2.90961 4.73684 2.90961 7.81053V9.93684C2.90961 10.8632 2.59382 11.7684 2.00434 12.4842L1.07803 13.6211C0.593817 14.2105 0.488554 15.0316 0.825396 15.7263C1.16224 16.4211 1.83592 16.8632 2.61487 16.8632H5.52013C5.68855 18.6316 7.16224 20 8.97276 20C10.7833 20 12.257 18.6105 12.4254 16.8632H15.3307C16.1096 16.8632 16.7833 16.4211 17.1201 15.7263C17.457 15.0316 17.3517 14.2316 16.8675 13.6211L15.8991 12.4842ZM8.95171 18.4842C7.98329 18.4842 7.18329 17.7684 7.03592 16.8421H10.8675C10.7201 17.7684 9.92013 18.4842 8.95171 18.4842ZM15.7307 15.0737C15.6886 15.1579 15.5833 15.3474 15.3096 15.3474H2.59382C2.32013 15.3474 2.21487 15.1579 2.17276 15.0737C2.13066 14.9895 2.0675 14.7789 2.23592 14.5684L3.16224 13.4316C3.96224 12.4421 4.40434 11.2 4.40434 9.91579V7.81053C4.4254 5.30526 6.44645 3.26316 8.95171 3.26316C11.457 3.26316 13.478 5.30526 13.478 7.78947V9.91579C13.478 11.2 13.9201 12.4421 14.7201 13.4316L15.6464 14.5684C15.8359 14.7789 15.7728 14.9895 15.7307 15.0737Z" fill="#0B3F8B"/>
<path d="M1.47799 5.72762C1.9622 3.98026 3.05693 2.46447 4.55167 1.41183C4.88851 1.18026 4.97272 0.696045 4.74114 0.359203C4.50956 0.0223609 4.02535 -0.0618496 3.68851 0.169729C1.92009 1.41183 0.614828 3.24341 0.0253544 5.32762C-0.0799088 5.72762 0.15167 6.14868 0.55167 6.25394C0.614828 6.27499 0.677986 6.27499 0.762197 6.27499C1.07799 6.29605 1.39378 6.06447 1.47799 5.72762Z" fill="#0B3F8B"/>
<path d="M17.878 5.32762C17.2885 3.24341 15.9832 1.41183 14.2148 0.169729C13.878 -0.0618496 13.3937 0.0223609 13.1622 0.359203C12.9306 0.696045 13.0148 1.18026 13.3516 1.41183C14.8464 2.44341 15.9411 3.98026 16.4253 5.72762C16.5095 6.06447 16.8253 6.27499 17.1622 6.27499C17.2253 6.27499 17.2885 6.27499 17.3727 6.25394C17.7516 6.14868 17.9832 5.72762 17.878 5.32762Z" fill="#0B3F8B"/>
</svg>
