<svg width="22" height="24" viewBox="0 0 22 24" fill="none" xmlns="http://www.w3.org/2000/svg">
<path d="M17.1778 13.723C17.5782 14.3847 17.815 15.1917 17.8625 16.007C18.6342 16.1822 19.2124 16.8724 19.2124 17.696C19.2124 18.6517 18.4349 19.4292 17.4791 19.4292C16.5234 19.4292 15.7459 18.6517 15.7459 17.696C15.7459 16.8837 16.3082 16.202 17.0634 16.015C16.9866 14.9092 16.4892 13.7974 15.6847 13.2839C15.4896 13.2494 15.2913 13.2215 15.0908 13.2031C15.0618 14.5 10.7733 17.6791 10.7733 17.6791C10.7735 17.6789 6.48497 14.5 6.45687 13.2033C6.20111 13.2268 5.94997 13.2649 5.70278 13.3147C5.07798 13.7612 4.57351 14.6322 4.54579 15.6903C4.70018 15.7799 4.82518 15.9185 4.90237 16.0871C5.47194 16.3558 5.97489 16.9217 6.36013 17.7273C6.42467 17.8631 6.43286 18.0162 6.3858 18.1558C6.61664 18.7501 6.7487 19.3999 6.7487 19.9455C6.7487 20.71 6.7487 21.433 5.91538 21.6184C5.82498 21.6936 5.71225 21.7347 5.59358 21.7347H5.03687C4.75766 21.7347 4.53073 21.5072 4.53073 21.2284C4.53687 20.9441 4.76398 20.722 5.03687 20.722H5.59358C5.65087 20.722 5.70667 20.7317 5.76024 20.7505C5.79391 20.7406 5.80451 20.7328 5.80451 20.7328C5.86646 20.6229 5.86646 20.1653 5.86646 19.9456C5.86646 19.5018 5.7556 18.9667 5.56121 18.4698C5.46021 18.4126 5.37874 18.3259 5.3287 18.221C4.9909 17.5141 4.53185 17.0574 4.15909 17.0574C3.77758 17.0574 3.29562 17.5511 2.95967 18.2851C2.90479 18.4045 2.80844 18.5022 2.68976 18.56C2.51398 19.0368 2.41744 19.5267 2.41744 19.9451C2.41744 20.1296 2.41744 20.6195 2.48775 20.7343H2.48794C2.48868 20.7343 2.50449 20.744 2.54876 20.7548C2.60661 20.7324 2.66725 20.7211 2.73012 20.7211H3.28798C3.55509 20.7211 3.77702 20.9304 3.79355 21.1977L3.79764 21.2137L3.79448 21.2278C3.79448 21.507 3.56736 21.7341 3.28834 21.7341H2.73048C2.61981 21.7341 2.51285 21.6973 2.42487 21.6298C2.10623 21.5697 1.88192 21.4289 1.73977 21.2005C1.56753 20.9242 1.53572 20.5607 1.53572 19.9447C1.53572 19.4041 1.66053 18.7821 1.88709 18.1877C1.8538 18.0604 1.86496 17.9276 1.9202 17.808C2.15643 17.2918 2.45668 16.8497 2.78848 16.5299C2.97096 16.354 3.16683 16.2128 3.372 16.1097C3.44883 15.9295 3.58275 15.782 3.74607 15.6886C3.76188 14.9877 3.95496 14.3227 4.27174 13.7638C1.75761 14.8601 9.02311e-08 17.3664 9.02311e-08 20.2847C-0.000557954 23.8267 2.58741 24.0012 5.97615 24.0012C6.34557 24.0012 6.72467 23.9991 7.11158 23.9991H14.4372C14.8227 23.9991 15.2023 24.0012 15.5721 24.0012C18.9606 24.0012 21.5492 23.8273 21.5492 20.2854C21.5492 17.329 19.7445 14.7959 17.1781 13.7231L17.1778 13.723Z" fill="#0B3F8B"/>
<path d="M10.774 14.1304C14.05 14.1304 16.7044 9.20471 16.7044 5.93044C16.7044 2.65498 14.0497 0 10.774 0C7.49907 0 4.84399 2.65513 4.84399 5.93044C4.84381 9.20533 7.4995 14.1304 10.774 14.1304ZM7.23122 3.26569C8.11702 5.96192 14.2359 4.74802 14.2359 4.74802C15.9984 4.61353 15.8708 7.03653 15.8687 7.06329C15.4032 9.82723 13.2994 13.2018 10.774 13.2018C8.15369 13.2018 5.98642 9.56532 5.63404 6.75091C5.91082 4.36178 7.23112 3.26565 7.23112 3.26565L7.23122 3.26569Z" fill="#0B3F8B"/>
<path d="M18.2792 17.6946C18.2792 18.1363 17.9211 18.4946 17.4792 18.4946C17.0374 18.4946 16.6793 18.1364 16.6793 17.6946C16.6793 17.2528 17.0374 16.8945 17.4792 16.8945C17.9211 16.8945 18.2792 17.2528 18.2792 17.6946Z" fill="#0B3F8B"/>
</svg>
