<svg width="24" height="22" viewBox="0 0 24 22" fill="none" xmlns="http://www.w3.org/2000/svg">
<path d="M5.50645 14.7422C6.54661 16.2385 7.57418 17.7175 8.6026 19.1956C8.6175 19.2011 8.6334 19.2038 8.64947 19.2036C8.69635 19.1427 8.74657 19.0747 8.79529 19.0044C9.72762 17.6538 10.6628 16.3053 11.5881 14.9496C11.7043 14.779 11.8042 14.7452 11.9977 14.8189C13.2892 15.3101 14.5881 15.7808 15.8786 16.2749C16.9304 16.6775 17.4119 17.601 17.1864 18.7087C17.0565 19.3463 16.9413 19.9871 16.8242 20.6273C16.7304 21.1284 16.3952 21.4242 15.8866 21.4242H1.37492C0.8593 21.4242 0.526979 21.1463 0.429049 20.6409C0.296288 19.9533 0.165374 19.2659 0.0366329 18.5784C-0.145681 17.6039 0.364762 16.6645 1.29473 16.3082C2.66014 15.7856 4.03228 15.2806 5.40155 14.7683C5.43152 14.7593 5.46282 14.7546 5.50652 14.7424L5.50645 14.7422Z" fill="#0B3F8B"/>
<path d="M18.2507 8.89131C19.133 8.02044 19.508 6.9426 19.5867 5.72587C19.1924 5.78346 18.8236 5.86649 18.4522 5.88625C16.5481 5.97481 15.0144 5.28105 13.9427 3.67371C13.6089 3.17347 13.2354 2.71879 12.761 2.34811C12.4717 2.1221 12.4558 2.00591 12.694 1.73871C13.8477 0.437415 15.2998 -0.136324 17.0244 0.0272218C18.5606 0.172536 19.79 0.883224 20.6573 2.16845C22.0271 4.19769 21.4542 6.96168 19.3809 8.34943C19.0387 8.57811 18.6614 8.7544 18.3004 8.95462L18.2507 8.89131Z" fill="#0B3F8B"/>
<path d="M4.85157 10.9033C4.65134 10.2382 4.42366 9.57958 4.25726 8.90543C4.01836 7.97258 4.01501 6.99507 4.24738 6.06056C4.68282 4.33604 5.81256 3.33153 7.5342 2.99252C8.52195 2.79849 9.50717 2.85474 10.4564 3.21803C12.0408 3.82374 12.8354 5.03499 13.0523 6.66861C13.2464 8.12831 12.8648 9.4924 12.3224 10.8247H12.3226C12.2966 10.8672 12.2672 10.9077 12.2345 10.9455C12.3782 10.1503 12.3285 9.33216 12.0897 8.56008C11.9243 8.01111 11.6819 7.48194 11.4231 6.96627C11.2332 6.58892 11.0541 6.58423 10.7434 6.87252C10.2657 7.31786 9.72953 7.65952 9.08315 7.80485C8.31256 7.97963 7.63755 7.73119 7.00655 7.3197C6.80833 7.18242 6.62033 7.03091 6.44404 6.86635C6.13365 6.59162 5.97526 6.60569 5.75445 6.9601C5.30762 7.67176 5.03221 8.47719 4.94954 9.31326C4.89981 9.82889 4.94016 10.3529 4.94016 10.8732L4.85157 10.9033Z" fill="#0B3F8B"/>
<path d="M19.9341 16.892H19.8615C19.5638 16.892 19.2164 16.9834 18.9825 16.8606C18.7711 16.7494 18.6844 16.4025 18.5401 16.1611C17.9968 15.2507 17.1755 14.7168 16.1897 14.3799C15.3684 14.0986 14.5618 13.7798 13.7494 13.477C13.4775 13.3752 13.4301 13.2661 13.5408 12.996C13.6514 12.726 13.7624 12.4616 13.8749 12.195C13.9874 11.9283 14.0507 11.9137 14.2705 12.1119C15.2169 12.9617 16.3096 13.2318 17.5177 12.8408C18.6849 12.463 19.412 11.6385 19.6988 10.4403C19.7925 10.0489 19.7902 10.046 20.1756 10.1853V10.1857C20.5106 10.3067 20.8392 10.4448 21.16 10.5995C22.6642 11.3247 23.3238 11.861 23.5225 12.1594C24.0382 12.9362 24.0119 13.7823 23.9913 14.3824C23.9731 14.9378 23.9552 15.4881 23.5694 15.8576C23.3566 16.0605 23.0355 16.2055 22.659 16.3732C22.471 16.461 22.2772 16.5356 22.0788 16.5967C21.8627 16.6588 21.6423 16.7059 21.4197 16.7374C21.279 16.7595 21.3301 16.7467 20.792 16.8157C20.6725 16.8311 20.5605 16.8457 20.3996 16.8626C20.2451 16.8807 20.0897 16.8905 19.9342 16.8921L19.9341 16.892Z" fill="#0B3F8B"/>
</svg>
