<svg width="24" height="24" viewBox="0 0 24 24" fill="none" xmlns="http://www.w3.org/2000/svg">
<path d="M13.4559 19.9243H4.47602V2.23792C4.47602 1.76298 4.32602 1.32283 4.07256 0.960261H16.739C17.4438 0.960261 18.0172 1.53365 18.0172 2.23792V14.0451C18.0172 14.3101 18.2323 14.5251 18.4972 14.5251C18.7622 14.5251 18.9771 14.3099 18.9771 14.0451L18.9773 5.31079V2.23779C18.9776 1.00398 17.9737 0 16.7393 0H2.23814C1.00398 0 0 1.00398 0 2.23779V5.31079C0 5.5758 0.215122 5.79075 0.479959 5.79075H3.5158V20.4038C3.5158 20.6688 3.73092 20.8838 3.99576 20.8838H13.4552C13.7202 20.8838 13.9352 20.6686 13.9352 20.4038C13.9353 20.1388 13.7206 19.9238 13.4554 19.9238L13.4559 19.9243ZM2.23845 0.960346C2.94306 0.960346 3.51645 1.53373 3.51645 2.23801V4.83087L0.960398 4.83121V2.23817C0.960398 1.53368 1.53361 0.960338 2.2384 0.960338L2.23845 0.960346Z" fill="#0B3F8B"/>
<path d="M15.3313 6.34623C15.3313 4.09404 13.4988 2.26172 11.2468 2.26172C8.99463 2.26172 7.16248 4.09387 7.16248 6.34623C7.16248 8.59808 8.99463 10.4306 11.2468 10.4306C13.499 10.4306 15.3313 8.59843 15.3313 6.34623ZM8.12231 6.34623C8.12231 4.62358 9.52387 3.22168 11.2467 3.22168C12.9697 3.22168 14.3712 4.62324 14.3712 6.34623C14.3712 8.06888 12.9697 9.47061 11.2467 9.47061C9.52387 9.47061 8.12231 8.06888 8.12231 6.34623Z" fill="#0B3F8B"/>
<path d="M16.351 12.8471C16.351 12.5821 16.1359 12.3672 15.871 12.3672H6.62241C6.3574 12.3672 6.14246 12.5823 6.14246 12.8471C6.14246 13.1122 6.35758 13.3271 6.62241 13.3271H15.871C16.136 13.3273 16.351 13.1125 16.351 12.8471Z" fill="#0B3F8B"/>
<path d="M7.64231 14.8945C7.3773 14.8945 7.16235 15.1097 7.16235 15.3745C7.16235 15.6395 7.37748 15.8544 7.64231 15.8544H14.8513C15.1163 15.8544 15.3313 15.6393 15.3313 15.3745C15.3313 15.1095 15.1162 14.8945 14.8513 14.8945H7.64231Z" fill="#0B3F8B"/>
<path d="M13.5587 17.4219H8.93443C8.66941 17.4219 8.45447 17.637 8.45447 17.9018C8.45447 18.1668 8.66959 18.3818 8.93443 18.3818H13.5587C13.8237 18.3818 14.0387 18.1667 14.0387 17.9018C14.0387 17.637 13.8239 17.4219 13.5587 17.4219Z" fill="#0B3F8B"/>
<path d="M11.4909 6.75726C11.5058 6.74839 11.5199 6.73918 11.5336 6.72863C11.5458 6.71959 11.5574 6.70988 11.5684 6.69984C11.58 6.68929 11.5907 6.67841 11.6012 6.66702C11.6118 6.65531 11.6217 6.64359 11.631 6.63103C11.6401 6.61881 11.6486 6.60609 11.6565 6.59286C11.6644 6.57964 11.6716 6.56675 11.6781 6.55285C11.6851 6.53845 11.6908 6.52406 11.6963 6.50899C11.7017 6.49459 11.7062 6.4802 11.7101 6.4653C11.7139 6.4504 11.7171 6.4355 11.7194 6.4201C11.7221 6.40335 11.7238 6.38678 11.7245 6.36987C11.725 6.36167 11.7268 6.35397 11.7268 6.34593V4.16355C11.7268 3.89854 11.5117 3.68359 11.2468 3.68359C10.9818 3.68359 10.7669 3.89872 10.7669 4.16355V6.05746L9.54195 6.7055C9.30774 6.82955 9.21817 7.12002 9.34222 7.35423C9.42811 7.51696 9.59468 7.60987 9.76695 7.60987C9.84262 7.60987 9.91929 7.59179 9.99111 7.55395L11.4714 6.77065C11.4786 6.76663 11.4841 6.76128 11.4909 6.75726H11.4909Z" fill="#0B3F8B"/>
<path d="M18.9245 14.895C16.4138 14.895 14.3713 16.9375 14.3713 19.4481C14.3712 21.9588 16.4141 24.0009 18.9245 24.0009C21.4348 24.0009 23.4777 21.9584 23.4777 19.4477C23.4777 16.9369 21.4349 14.8945 18.9245 14.8945V14.895ZM18.9245 23.0413C16.943 23.0413 15.3312 21.4295 15.3312 19.4483C15.3312 17.4668 16.943 15.855 18.9245 15.855C20.906 15.855 22.5178 17.4668 22.5178 19.4483C22.5177 21.4295 20.9058 23.0413 18.9245 23.0413Z" fill="#0B3F8B"/>
<path d="M21.0584 17.3839C20.8525 17.2176 20.5503 17.2493 20.3832 17.4557L18.0459 20.3482L17.4819 19.5629C17.3268 19.3478 17.0274 19.2984 16.8117 19.4529C16.5966 19.6078 16.5472 19.9077 16.7017 20.1231L17.6332 21.42C17.636 21.4239 17.6397 21.4262 17.6425 21.4301C17.6579 21.4505 17.6762 21.4692 17.6953 21.4871C17.703 21.4943 17.7098 21.5027 17.7179 21.5097C17.7194 21.5107 17.7202 21.5121 17.7217 21.5134C17.7467 21.5339 17.7738 21.5501 17.8013 21.5648C17.809 21.5688 17.8168 21.5715 17.8247 21.5752C17.849 21.5862 17.8732 21.5953 17.8984 21.6018C17.9071 21.6042 17.9156 21.6068 17.9243 21.6085C17.9571 21.6152 17.9901 21.6201 18.0232 21.6201H18.0237H18.0239C18.0244 21.6201 18.0251 21.6199 18.0256 21.6199C18.0686 21.6197 18.1105 21.612 18.1518 21.6005C18.1639 21.5971 18.1751 21.5931 18.1868 21.5884C18.2213 21.5759 18.2538 21.5596 18.2849 21.5392C18.2906 21.5354 18.2976 21.5342 18.3033 21.5302C18.3062 21.528 18.3083 21.5253 18.3107 21.5236C18.3201 21.5166 18.3279 21.5082 18.3368 21.5004C18.3549 21.4848 18.3721 21.4684 18.3872 21.4506C18.39 21.4473 18.3934 21.4451 18.3962 21.4418L21.1302 18.0589C21.2968 17.8526 21.2647 17.5505 21.0584 17.3839L21.0584 17.3839Z" fill="#0B3F8B"/>
</svg>
