<svg width="23" height="25" viewBox="0 0 23 25" fill="none" xmlns="http://www.w3.org/2000/svg">
<path d="M22.5 23.0018C22.5 23.3333 22.3683 23.6513 22.1339 23.8857C21.8995 24.1201 21.5815 24.2518 21.25 24.2518H1.25C0.91848 24.2518 0.600537 24.1201 0.366117 23.8857C0.131696 23.6513 3.00888e-07 23.3333 3.00888e-07 23.0018V9.8643C-0.000131855 9.67382 0.0432715 9.48583 0.126895 9.31468C0.210519 9.14353 0.33215 8.99376 0.4825 8.8768L10.4825 1.0993C10.7019 0.928612 10.972 0.835938 11.25 0.835938C11.528 0.835938 11.7981 0.928612 12.0175 1.0993L22.0175 8.8768C22.1679 8.99376 22.2895 9.14353 22.3731 9.31468C22.4567 9.48583 22.5001 9.67382 22.5 9.8643V23.0018Z" fill="white"/>
</svg>
