<svg width="17" height="22" viewBox="0 0 17 22" fill="none" xmlns="http://www.w3.org/2000/svg">
<path d="M16.7619 22H0V19.9048C0 18.5155 0.551869 17.1832 1.5342 16.2009C2.51654 15.2185 3.84887 14.6667 5.2381 14.6667H11.5238C12.913 14.6667 14.2454 15.2185 15.2277 16.2009C16.21 17.1832 16.7619 18.5155 16.7619 19.9048V22ZM8.38095 12.5714C7.5555 12.5714 6.73813 12.4088 5.97551 12.093C5.2129 11.7771 4.51996 11.3141 3.93628 10.7304C3.3526 10.1467 2.8896 9.45377 2.57371 8.69115C2.25782 7.92854 2.09524 7.11117 2.09524 6.28571C2.09524 5.46026 2.25782 4.64289 2.57371 3.88028C2.8896 3.11766 3.3526 2.42473 3.93628 1.84104C4.51996 1.25736 5.2129 0.794358 5.97551 0.478471C6.73813 0.162585 7.5555 -1.23002e-08 8.38095 0C10.048 2.48414e-08 11.6468 0.662243 12.8256 1.84104C14.0044 3.01984 14.6667 4.61864 14.6667 6.28571C14.6667 7.95279 14.0044 9.55159 12.8256 10.7304C11.6468 11.9092 10.048 12.5714 8.38095 12.5714Z" fill="#E0EFFF"/>
</svg>
