<svg width="22" height="20" viewBox="0 0 22 20" fill="none" xmlns="http://www.w3.org/2000/svg">
<path d="M1.1 0H20.9C21.1917 0 21.4715 0.115892 21.6778 0.322182C21.8841 0.528472 22 0.808262 22 1.1V18.7C22 18.9917 21.8841 19.2715 21.6778 19.4778C21.4715 19.6841 21.1917 19.8 20.9 19.8H1.1C0.808262 19.8 0.528472 19.6841 0.322183 19.4778C0.115892 19.2715 0 18.9917 0 18.7V1.1C0 0.808262 0.115892 0.528472 0.322183 0.322182C0.528472 0.115892 0.808262 0 1.1 0ZM5.5 11V15.4H7.7V11H5.5ZM9.9 4.4V15.4H12.1V4.4H9.9ZM14.3 7.7V15.4H16.5V7.7H14.3Z" fill="#E0EFFF"/>
</svg>
